<?xml version="1.0" encoding="UTF-8"?>
<svg xmlns="http://www.w3.org/2000/svg" width="124" height="17" viewBox="0 0 124 17" fill="none">
  <path d="M77.6948 4.62151C76.6833 4.62151 75.8816 4.83263 75.3545 5.35976L74.7432 5.97107H74.5597H73.9815C73.4088 5.07136 72.4029 4.62151 70.9471 4.62151C69.9356 4.62151 69.1339 4.83263 68.6067 5.35976L67.9954 5.97107H67.3841L67.0888 4.83264H64.9817V15.9203H67.8285V9.13245C67.8285 7.82567 68.5032 7.15089 69.8528 7.15089C71.1182 7.15089 71.7074 7.76219 71.7074 9.13245V15.9203H74.5528V9.09105L74.5762 9.11589C74.5817 7.82015 75.2551 7.15089 76.5992 7.15089C77.8632 7.15089 78.4552 7.76219 78.4552 9.13245V15.9203H81.3005V8.3735C81.2991 5.86481 80.1193 4.62151 77.6948 4.62151ZM95.94 13.5164H98.9965V7.21299H96.2988V4.83264H101.042L101.316 5.97107H101.948L102.559 5.35976C103.066 4.83263 103.866 4.62151 104.9 4.62151H106.692V7.17159H103.888C102.539 7.17159 101.843 7.82429 101.843 9.0262V13.5164H105.384V15.9189H95.94V13.5164ZM88.0718 14.0022C89.5262 14.0022 90.3486 13.2432 90.3486 11.9157V11.2203H88.1766C86.9747 11.2203 86.3634 11.7267 86.3634 12.654C86.3634 13.475 86.8492 14.0022 88.0718 14.0022ZM83.4767 12.9272C83.4767 10.7345 84.9311 9.5754 87.4605 9.5754H90.3486V8.75297C90.3486 7.38272 89.7373 6.81419 88.4719 6.81419C87.397 6.81419 86.638 7.23645 86.5539 8.26862H83.9817C84.0659 5.97106 85.668 4.62289 88.7038 4.62289C91.7396 4.62289 93.194 5.92967 93.194 8.6274V15.9216H91.0013L90.7267 14.7832H90.1154L89.5041 15.3945C88.9991 15.8996 88.1973 16.1328 87.1224 16.1328C84.7407 16.1314 83.4767 14.9929 83.4767 12.9272ZM56.1848 11.2617H54.9415V15.9203H52.0961V0.320312H54.9415V8.7309H56.2275L59.1364 4.83125H62.3833L58.6093 9.99628L62.5089 15.9189H59.1571L56.1848 11.2617ZM38.929 10.3758C38.929 6.47611 40.7422 4.62151 44.1988 4.62151C47.3602 4.62151 49.0258 6.18219 49.1113 9.06897H46.3501C46.2232 7.65732 45.507 7.02394 44.2002 7.02394C42.5774 7.02394 41.8599 7.99402 41.8599 10.3758C41.8599 12.7575 42.5761 13.7276 44.2002 13.7276C45.5277 13.7276 46.2659 13.0956 46.3722 11.5556H49.1762C49.092 14.5486 47.3837 16.13 44.2016 16.13C40.7422 16.1314 38.929 14.2547 38.929 10.3758ZM33.7695 9.06897C33.7267 7.55107 32.9884 6.72864 31.5133 6.72864C30.1017 6.72864 29.3206 7.46689 29.0681 9.06897H33.7695ZM26.202 10.3758C26.202 6.47611 28.0359 4.62151 31.5133 4.62151C35.119 4.62151 36.7832 6.56029 36.383 10.8615H29.0046C29.1095 13.0542 29.8905 13.9815 31.534 13.9815C32.7359 13.9815 33.5363 13.4971 33.7267 12.5063H36.3402C36.0877 14.8039 34.338 16.1328 31.4498 16.1328C28.0139 16.1314 26.202 14.2547 26.202 10.3758ZM13.7842 0.320312H16.6296V4.00883L16.3771 5.82203L16.9677 5.96969L17.579 5.35838C18.1061 4.83125 18.8443 4.62013 19.8337 4.62013C22.2168 4.62013 23.3539 5.86343 23.3539 8.37212V15.9189H20.5085V9.13107C20.5085 7.76081 19.9179 7.14951 18.6539 7.14951C17.3044 7.14951 16.6296 7.82429 16.6296 9.13107V15.9189H13.7842V0.320312ZM0.226562 8.6481C0.226562 3.3575 1.93351 1.03925 5.83315 1.03925C9.3326 1.03925 11.0175 2.93525 11.1665 6.89837H8.27835C8.17348 4.70568 7.41452 3.69421 5.83315 3.69421C3.97854 3.69421 3.24029 5.06446 3.24029 8.6481C3.24029 12.3366 3.93577 13.602 5.83315 13.602C7.45592 13.602 8.19417 12.6954 8.32113 10.3551H11.2507C11.081 14.3596 9.3326 16.257 5.83315 16.257C1.93351 16.257 0.226562 13.9387 0.226562 8.6481Z" fill="white"></path>
  <path d="M121.219 1.79261L114.883 8.64802C114.753 8.77773 114.514 8.78049 114.392 8.6632L111.135 4.88775L111.118 4.86981C110.838 4.58831 110.452 4.4379 110.054 4.45722C109.656 4.47516 109.28 4.66283 109.025 4.97193C108.797 5.24791 108.687 5.60117 108.716 5.96685C108.744 6.31873 108.897 6.64991 109.158 6.90933L112.9 10.1328C112.965 10.199 113.001 10.2874 113.001 10.3812C113.001 10.475 112.965 10.5633 112.911 10.6199L109.169 13.8434L109.152 13.86C108.882 14.129 108.724 14.5058 108.719 14.8894C108.713 15.2937 108.868 15.6621 109.155 15.9285C109.287 16.0526 109.44 16.1479 109.609 16.2127C109.941 16.341 110.321 16.3383 110.651 16.2044C110.826 16.1327 110.985 16.0278 111.127 15.8843L114.381 12.1116C114.513 11.9833 114.746 11.9833 114.868 12.1006L118.124 15.876L118.141 15.8926C118.276 16.0278 118.433 16.1313 118.609 16.2031C118.778 16.2721 118.958 16.3066 119.14 16.3066C119.315 16.3066 119.486 16.2748 119.65 16.2113C119.819 16.1465 119.972 16.0499 120.104 15.9271C120.391 15.6608 120.546 15.2909 120.54 14.8866C120.535 14.5016 120.378 14.1263 120.097 13.8489L116.359 10.6296C116.294 10.562 116.259 10.4736 116.259 10.3812C116.259 10.2874 116.294 10.1977 116.351 10.1397L123.2 3.81142C123.449 3.56028 123.604 3.2291 123.631 2.87722C123.66 2.51154 123.55 2.15828 123.322 1.8823C123.067 1.5732 122.692 1.38553 122.294 1.36759C122.272 1.36621 122.25 1.36621 122.229 1.36621C121.858 1.36621 121.494 1.518 121.219 1.79261Z" fill="white"></path>
</svg>
