<svg id="Layer_1" xmlns="http://www.w3.org/2000/svg" xmlns:xlink="http://www.w3.org/1999/xlink" width="292.124" height="292" viewBox="0 0 292.124 292">
  <defs>
    <linearGradient id="linear-gradient" x1="0.138" y1="0.763" x2="0.957" y2="0.189" gradientUnits="objectBoundingBox">
      <stop offset="0" stop-color="#146e39"/>
      <stop offset="1" stop-color="#27a94a"/>
    </linearGradient>
  </defs>
  <g id="Group_2971" data-name="Group 2971">
    <path id="Path_2644" data-name="Path 2644" d="M375.126,56.84H311.482C202.191,56.84,131,85.671,99.876,142.522c-12.732,23.258-18.705,52.833-16.383,81.137,2.707,32.958,15.957,62.2,38.33,84.554.226.226.459.451.693.677l.109.109c.217.234.443.46.668.693,25.238,25.247,60.068,39.148,98.08,39.148,24.662,0,48.889-5.965,68.2-16.8,57.678-32.348,86.367-105.281,85.506-217.07,0-.351.017-.677.017-1.019V56.84Z" transform="translate(-83.001 -56.84)" fill="#fff"/>
  </g>
  <g id="Group_2990" data-name="Group 2990" transform="translate(10.914 10.907)">
    <g id="Group_2989" data-name="Group 2989">
      <g id="Group_2973" data-name="Group 2973">
        <g id="Group_2972" data-name="Group 2972">
          <path id="Path_2645" data-name="Path 2645" d="M364.752,73.057h0c-.033-.56-.059-1.362-.059-1.362s-.71-.075-1.462-.159h0c-134.212-8.822-218.482,18-251.649,78.6C89.169,191.079,87.18,258.289,131.608,302.7c.251.251.518.493.769.744s.493.518.744.769c44.412,44.428,112.925,43,153.043,20.5C346.415,290.921,373.574,207.278,364.752,73.057Z" transform="translate(-96.065 -69.896)" fill="url(#linear-gradient)"/>
        </g>
      </g>
      <g id="Group_2988" data-name="Group 2988" transform="translate(23.505 69.963)">
        <g id="Group_2979" data-name="Group 2979">
          <g id="Group_2974" data-name="Group 2974" transform="translate(0 20.184)">
            <path id="Path_2646" data-name="Path 2646" d="M142.7,203.665l-7.886,7.46V223.08H124.2V177.8h10.6v20.351L156.765,177.8H169.48l-18.906,19,20.694,26.283H158.377Z" transform="translate(-124.2 -177.8)" fill="#fff"/>
          </g>
          <g id="Group_2975" data-name="Group 2975" transform="translate(52.072)">
            <path id="Path_2647" data-name="Path 2647" d="M188.485,164.534a6.241,6.241,0,0,1,0-9.073,6.775,6.775,0,0,1,4.837-1.821,6.968,6.968,0,0,1,4.829,1.738,5.629,5.629,0,0,1,1.955,4.369,6.369,6.369,0,0,1-1.913,4.7,6.6,6.6,0,0,1-4.871,1.9A6.775,6.775,0,0,1,188.485,164.534Zm-.51,9.29h10.6V219.1h-10.6Z" transform="translate(-186.53 -153.64)" fill="#fff"/>
          </g>
          <g id="Group_2976" data-name="Group 2976" transform="translate(72.85 19.674)">
            <path id="Path_2648" data-name="Path 2648" d="M219.8,222.136a27.1,27.1,0,0,1-8.4-3.642l4.069-8.054a26.252,26.252,0,0,0,7.335,3.267,30.505,30.505,0,0,0,8.438,1.228q9.5,0,9.5-5a3.347,3.347,0,0,0-2.414-3.308,42.393,42.393,0,0,0-7.761-1.779,62.89,62.89,0,0,1-9.115-1.955,14.017,14.017,0,0,1-6.107-3.86q-2.582-2.757-2.59-7.678a12.062,12.062,0,0,1,5.389-10.3q5.389-3.86,14.545-3.86a41.73,41.73,0,0,1,9.323,1.061,26.338,26.338,0,0,1,7.636,2.84l-4.069,8.054a25.081,25.081,0,0,0-12.974-3.392q-4.662,0-7.084,1.4a4.173,4.173,0,0,0-2.414,3.684,3.693,3.693,0,0,0,2.582,3.609,40.573,40.573,0,0,0,8.012,1.988,62.3,62.3,0,0,1,8.906,1.955,13.9,13.9,0,0,1,5.973,3.734c1.671,1.754,2.5,4.244,2.5,7.46a11.8,11.8,0,0,1-5.514,10.176q-5.514,3.822-15.013,3.818A40.833,40.833,0,0,1,219.8,222.136Z" transform="translate(-211.4 -177.19)" fill="#fff"/>
          </g>
          <g id="Group_2977" data-name="Group 2977" transform="translate(118.473 19.658)">
            <path id="Path_2649" data-name="Path 2649" d="M301.842,181.974q5.3,4.787,5.3,14.461v26.542H297.138v-5.514A12.315,12.315,0,0,1,291.583,222a21.775,21.775,0,0,1-8.7,1.571,21.281,21.281,0,0,1-8.906-1.738A13.648,13.648,0,0,1,268.09,217a12.257,12.257,0,0,1-2.08-7,11.983,11.983,0,0,1,4.536-9.791q4.536-3.684,14.286-3.693h11.7v-.677q0-4.749-2.84-7.293t-8.438-2.548a24.277,24.277,0,0,0-7.5,1.186,18.448,18.448,0,0,0-6.232,3.308l-4.16-7.719a25.766,25.766,0,0,1,8.572-4.152,38.1,38.1,0,0,1,10.6-1.445Q296.537,177.2,301.842,181.974Zm-9.666,32.056a9.944,9.944,0,0,0,4.369-5.213v-5.255H285.6q-9.16,0-9.156,6.023a5.393,5.393,0,0,0,2.289,4.578,10.527,10.527,0,0,0,6.358,1.7A13.686,13.686,0,0,0,292.176,214.029Z" transform="translate(-266.01 -177.17)" fill="#fff"/>
          </g>
          <g id="Group_2978" data-name="Group 2978" transform="translate(173.16 19.683)">
            <path id="Path_2650" data-name="Path 2650" d="M370.911,182.2q5.175,5,5.171,14.837v25.949h-10.6v-24.6q0-5.94-2.8-8.947c-1.863-2.005-4.528-3.008-7.97-3.008q-5.852,0-9.248,3.517t-3.392,10.134v22.9h-10.6V177.7h10.092v5.856a16.543,16.543,0,0,1,6.608-4.745,23.742,23.742,0,0,1,8.989-1.612Q365.756,177.187,370.911,182.2Z" transform="translate(-331.47 -177.2)" fill="#fff"/>
          </g>
        </g>
        <g id="Group_2987" data-name="Group 2987" transform="translate(0.008 74.579)">
          <g id="Group_2980" data-name="Group 2980" transform="translate(0 0.008)">
            <path id="Path_2651" data-name="Path 2651" d="M135.605,259.178l-4.862,4.6v7.377H124.21V242.92h6.533v12.866l13.542-12.548h7.845L140.467,254.95l12.757,16.207H145.28Z" transform="translate(-124.21 -242.92)" fill="#fff"/>
          </g>
          <g id="Group_2981" data-name="Group 2981" transform="translate(29.808)">
            <path id="Path_2652" data-name="Path 2652" d="M167.1,269.686a13.314,13.314,0,0,1-5.3-5.1,15.285,15.285,0,0,1,0-14.779,13.366,13.366,0,0,1,5.3-5.071,16.954,16.954,0,0,1,15.322,0,13.367,13.367,0,0,1,5.305,5.071,15.227,15.227,0,0,1,0,14.779,13.314,13.314,0,0,1-5.305,5.1,16.953,16.953,0,0,1-15.322,0Zm13.592-6.165a9.666,9.666,0,0,0,0-12.648,8,8,0,0,0-5.965-2.406,7.882,7.882,0,0,0-5.932,2.406,9.745,9.745,0,0,0,0,12.648,7.907,7.907,0,0,0,5.932,2.406A8,8,0,0,0,180.692,263.52Z" transform="translate(-159.89 -242.91)" fill="#fff"/>
          </g>
          <g id="Group_2982" data-name="Group 2982" transform="translate(65.824 0.017)">
            <path id="Path_2653" data-name="Path 2653" d="M227.311,246q3.183,3.083,3.191,9.148v16h-6.533V255.988a7.82,7.82,0,0,0-1.729-5.514,6.387,6.387,0,0,0-4.912-1.855,7.547,7.547,0,0,0-5.7,2.172,8.65,8.65,0,0,0-2.089,6.249v14.119H203v-27.92h6.224v3.609a10.2,10.2,0,0,1,4.077-2.924,14.705,14.705,0,0,1,5.539-.994A11.62,11.62,0,0,1,227.311,246Z" transform="translate(-203 -242.93)" fill="#fff"/>
          </g>
          <g id="Group_2983" data-name="Group 2983" transform="translate(101.655 0.017)">
            <path id="Path_2654" data-name="Path 2654" d="M270.193,246q3.183,3.083,3.191,9.148v16h-6.533V255.988a7.82,7.82,0,0,0-1.729-5.514,6.387,6.387,0,0,0-4.912-1.855,7.548,7.548,0,0,0-5.7,2.172,8.65,8.65,0,0,0-2.089,6.249v14.119H245.89v-27.92h6.224v3.609a10.2,10.2,0,0,1,4.077-2.924,14.706,14.706,0,0,1,5.539-.994A11.639,11.639,0,0,1,270.193,246Z" transform="translate(-245.89 -242.93)" fill="#fff"/>
          </g>
          <g id="Group_2984" data-name="Group 2984" transform="translate(135.423 0.017)">
            <path id="Path_2655" data-name="Path 2655" d="M314.748,259.288h-21.9a7.6,7.6,0,0,0,3.008,4.887,9.853,9.853,0,0,0,6.04,1.8,10.191,10.191,0,0,0,7.586-3.033l3.5,4.027a11.829,11.829,0,0,1-4.762,3.4,18.837,18.837,0,0,1-14.587-.677,13.18,13.18,0,0,1-5.414-5.1,14.427,14.427,0,0,1-1.9-7.4,14.579,14.579,0,0,1,1.855-7.343,13.179,13.179,0,0,1,5.146-5.1,15.033,15.033,0,0,1,7.427-1.83,14.617,14.617,0,0,1,7.293,1.8,12.75,12.75,0,0,1,5.021,5.071,15.371,15.371,0,0,1,1.8,7.552C314.848,257.809,314.815,258.452,314.748,259.288Zm-19.324-9.282a7.822,7.822,0,0,0-2.64,4.946h15.84a7.635,7.635,0,0,0-7.895-6.792A7.837,7.837,0,0,0,295.425,250.006Z" transform="translate(-286.31 -242.93)" fill="#fff"/>
          </g>
          <g id="Group_2985" data-name="Group 2985" transform="translate(167.93)">
            <path id="Path_2656" data-name="Path 2656" d="M332.547,269.686a13.48,13.48,0,0,1-5.389-5.1,14.287,14.287,0,0,1-1.938-7.4,14.075,14.075,0,0,1,1.938-7.377,13.467,13.467,0,0,1,5.363-5.071,16.323,16.323,0,0,1,7.82-1.83,15.123,15.123,0,0,1,7.243,1.671,10.853,10.853,0,0,1,4.678,4.812l-5.021,2.924a7.978,7.978,0,0,0-3.008-2.9,8.772,8.772,0,0,0-10.017,1.412,9.629,9.629,0,0,0-.025,12.707,8.811,8.811,0,0,0,10.042,1.412,7.977,7.977,0,0,0,3.008-2.9l5.021,2.924a11.337,11.337,0,0,1-4.729,4.837,14.717,14.717,0,0,1-7.193,1.7A16.284,16.284,0,0,1,332.547,269.686Z" transform="translate(-325.22 -242.91)" fill="#fff"/>
          </g>
          <g id="Group_2986" data-name="Group 2986" transform="translate(197.27 0.526)">
            <path id="Path_2657" data-name="Path 2657" d="M380.833,269.739a7.749,7.749,0,0,1-2.8,1.412,12.429,12.429,0,0,1-3.475.468q-4.6,0-7.109-2.406c-1.671-1.6-2.506-3.935-2.506-7.009V248.77h-4.6v-5.23h18.613v5.23h-7.477v13.283a4.409,4.409,0,0,0,.994,3.108,3.708,3.708,0,0,0,2.874,1.069A5.738,5.738,0,0,0,379,265.077Z" transform="translate(-360.34 -243.54)" fill="#fff"/>
          </g>
        </g>
      </g>
    </g>
  </g>
</svg>
