<?xml version="1.0" encoding="UTF-8" standalone="no"?>
<!DOCTYPE svg PUBLIC "-//W3C//DTD SVG 1.1//EN" "http://www.w3.org/Graphics/SVG/1.1/DTD/svg11.dtd">
<svg width="100%" height="100%" viewBox="0 0 3300 940" version="1.1" xmlns="http://www.w3.org/2000/svg" xmlns:xlink="http://www.w3.org/1999/xlink" xml:space="preserve" xmlns:serif="http://www.serif.com/" style="fill-rule:evenodd;clip-rule:evenodd;stroke-linejoin:round;stroke-miterlimit:2;">
    <g transform="matrix(1,0,0,1,-414.04,-480.32)">
        <g>
            <path d="M3276.13,1158.48L3425.38,1158.48C3489.63,1158.48 3516.32,1143.64 3516.32,1083.35C3516.32,1022.07 3493.58,1013.18 3429.34,1013.18L3276.13,1013.18L3276.13,1158.48ZM3276.12,875.78L3418.46,875.78C3487.64,875.78 3504.45,863.92 3504.45,804.61C3504.45,760.14 3497.53,743.33 3442.17,741.36L3276.12,741.36L3276.12,875.78ZM3078.44,579.23L3467.89,579.23C3615.16,579.23 3702.14,606.9 3702.14,769.02C3702.14,862.93 3683.36,927.85 3585.51,943.67L3585.51,944.52C3695.22,951.44 3714.01,1021.07 3714.01,1113.99C3714.01,1295.86 3629,1320.58 3471.84,1320.58L3078.44,1320.58L3078.44,579.23Z" style="fill:url(#_Linear1);fill-rule:nonzero;"/>
            <path d="M2091.36,579.13L1902.33,856.68L1900.58,856.68L1900.62,579.13L1702.4,579.13L1702.4,1320.69L1900.62,1320.69L1900.53,1032.6L1902.69,1032.58L2107.22,1320.69L2353.01,1320.69L2069.56,942.99L2331.21,579.13L2091.36,579.13Z" style="fill:url(#_Linear2);fill-rule:nonzero;"/>
            <path d="M2707.92,869.51C2925.74,889.04 2979.3,917.49 2976.35,1086.45C2974.22,1208.25 2977.04,1345.26 2652.84,1339.6C2465.19,1336.33 2340.49,1313.14 2344.71,1071.49L2533.34,1071.59C2532,1148.21 2559.37,1159.74 2655.65,1161.44C2748,1163.04 2778.56,1157.68 2779.63,1095.79C2780.75,1031.94 2769.92,1032.74 2677.68,1025.22L2634.5,1021.52C2452.98,1005.59 2346.85,1004.71 2350.55,793.51C2354.24,582.32 2473.35,557.83 2665.91,561.19C2827.02,564.01 2964.52,582.16 2960.97,785.51L2960.43,815.96L2771.8,816C2773.13,740.35 2741.68,736.48 2663.09,735.12C2556.99,733.26 2547.76,754.72 2547.05,795.98C2546.02,854.92 2574.48,857.37 2626.48,862.21L2707.92,869.51Z" style="fill:url(#_Linear3);fill-rule:nonzero;"/>
            <path d="M577.62,718.49C577.62,677.28 611.02,643.88 652.23,643.88L1167.36,643.88C1208.57,643.88 1241.97,677.29 1241.97,718.49L1241.97,1181.29C1241.97,1222.5 1208.57,1255.9 1167.36,1255.9L1103.25,1255.9L1103.25,1419.49L1182.7,1419.49C1305.78,1419.49 1405.55,1319.71 1405.55,1196.63L1405.55,703.18C1405.55,580.1 1305.78,480.32 1182.7,480.32L636.89,480.32C513.81,480.32 414.04,580.1 414.04,703.18L414.04,789.51L495.83,735.93L577.62,789.51L577.62,718.49Z" style="fill:url(#_Linear4);fill-rule:nonzero;"/>
            <g>
                <path d="M577.62,1173.47C577.62,1219 614.53,1255.91 660.06,1255.91C705.59,1255.91 742.5,1219 742.5,1173.47C742.5,1127.94 705.59,1091.03 660.06,1091.03L614.15,1091.03L614.15,927.44L660.06,927.44C795.94,927.44 906.09,1037.59 906.09,1173.47C906.09,1309.35 795.94,1419.5 660.06,1419.5C524.18,1419.5 414.04,1309.35 414.04,1173.47L414.04,828.04L495.83,774.66L577.62,828.04L577.62,1173.47Z" style="fill:url(#_Linear5);fill-rule:nonzero;"/>
            </g>
            <path d="M1072.72,1255.91L1072.72,1419.49L790.38,1419.49L790.38,1417.53C790.38,1417.53 892.03,1373.91 928.88,1255.91L1072.72,1255.91Z" style="fill:rgb(0,102,179);fill-rule:nonzero;"/>
            <path d="M2636.22,560.91" style="fill:rgb(238,53,50);fill-rule:nonzero;"/>
            <path d="M1900.58,856.68L1902.33,856.68L1912.71,876.31L1880.95,876.31L1900.58,856.68Z" style="fill:rgb(205,207,208);fill-rule:nonzero;"/>
            <path d="M1900.53,1032.6L1902.69,1032.58L1912.76,1012.84L1880.9,1013.17L1900.53,1032.6Z" style="fill-rule:nonzero;"/>
            <path d="M1900.62,579.13L1702.4,579.13L1722.03,598.76L1880.99,598.76L1900.62,579.13Z" style="fill:rgb(213,215,216);fill-rule:nonzero;"/>
            <path d="M2331.21,579.13L2091.36,579.13L2101.74,598.76L2292.91,598.76L2331.21,579.13Z" style="fill:rgb(213,215,216);fill-rule:nonzero;"/>
            <path d="M1900.62,1320.69L1702.4,1320.69L1722.03,1301.06L1880.99,1301.06L1900.62,1320.69Z" style="fill-rule:nonzero;"/>
            <path d="M2353.01,1320.69L2107.22,1320.69L2117.35,1301.06L2313.74,1301.06L2353.01,1320.69Z" style="fill-rule:nonzero;"/>
            <path d="M1902.69,1032.58L2107.22,1320.69L2117.35,1301.06L1912.76,1012.84L1902.69,1032.58Z" style="fill-rule:nonzero;"/>
            <path d="M1900.62,1320.69L1900.53,1032.6L1880.9,1013.17L1880.99,1301.06L1900.62,1320.69Z" style="fill:rgb(177,179,182);fill-rule:nonzero;"/>
            <path d="M1702.4,1320.69L1702.4,579.13L1722.03,598.76L1722.03,1301.06L1702.4,1320.69Z" style="fill-rule:nonzero;"/>
            <path d="M2045.2,943.24L2313.74,1301.06L2353.01,1320.69L2069.56,942.99L2045.2,943.24Z" style="fill:rgb(196,198,200);fill-rule:nonzero;"/>
            <path d="M2331.21,579.13L2069.56,942.99L2045.2,943.24L2292.91,598.76L2331.21,579.13Z" style="fill:url(#_Linear6);fill-rule:nonzero;"/>
            <path d="M1902.33,856.68L2091.36,579.13L2101.74,598.76L1912.71,876.31L1902.33,856.68Z" style="fill:url(#_Linear7);fill-rule:nonzero;"/>
            <path d="M1900.58,856.68L1900.62,579.13L1880.99,598.76L1880.95,876.31L1900.58,856.68Z" style="fill:url(#_Linear8);fill-rule:nonzero;"/>
            <path d="M2960.44,815.95L2960.98,785.5C2964.53,582.15 2827.03,564 2665.92,561.18C2655.81,561 2645.92,560.9 2636.22,560.9L2636.22,580.53C2645.45,580.53 2655.05,580.62 2665.57,580.8C2700.33,581.41 2740.83,582.77 2777.6,588.23C2814.03,593.65 2842.81,602.49 2865.59,615.25C2890.75,629.35 2909.01,648.47 2921.4,673.7C2928.19,687.52 2933.31,703.5 2936.62,721.19C2940.16,740.12 2941.75,761.64 2941.34,785.14L2941.14,796.31L2960.44,815.95Z" style="fill:rgb(213,215,216);fill-rule:nonzero;"/>
            <path d="M2960.44,815.95L2771.81,815.99L2790.98,796.36L2941.15,796.33L2960.44,815.95Z" style="fill-rule:nonzero;"/>
            <path d="M2771.81,815.99C2773.14,740.34 2741.69,736.47 2663.1,735.11L2663.44,715.48C2681.38,715.79 2700.2,716.26 2715.85,718.2C2733.66,720.41 2746.92,724.45 2757.58,730.89C2763.97,734.75 2769.51,739.58 2774.04,745.24C2778.54,750.86 2782.2,757.49 2784.89,764.95C2787.41,771.91 2789.16,779.62 2790.23,788.5C2790.54,791.03 2790.78,793.65 2790.98,796.36L2771.81,815.99Z" style="fill-rule:nonzero;"/>
            <path d="M2707.92,869.51L2626.49,862.19C2590.08,858.8 2565.22,856.59 2553.93,835.34C2549.09,826.24 2546.75,813.64 2547.06,795.96C2547.75,756.35 2556.27,734.99 2650.86,734.99C2654.79,734.99 2658.88,735.03 2663.1,735.1L2663.44,715.47C2659.11,715.39 2654.88,715.36 2650.85,715.36C2626.26,715.36 2606.76,716.76 2591.24,719.65C2574.61,722.74 2561.82,727.69 2552.13,734.79C2546.97,738.58 2542.58,743.06 2539.09,748.12C2535.88,752.77 2533.34,758.07 2531.53,763.85C2528.22,774.42 2527.6,785.84 2527.43,795.62C2527.13,812.65 2529.08,826.35 2533.37,837.48C2535.73,843.58 2538.86,849.07 2542.69,853.8C2546.45,858.44 2550.97,862.48 2556.15,865.8C2564.52,871.17 2574.68,874.84 2588.12,877.34C2598.9,879.34 2610.61,880.43 2624.17,881.69L2624.68,881.74L2624.74,881.74L2706.18,889.06C2766.01,894.42 2806.62,899.97 2837.85,907.03C2855.08,910.93 2869.5,915.29 2881.96,920.36C2894.28,925.38 2904.44,931 2913.04,937.55C2921.4,943.92 2928.2,951.13 2933.82,959.57C2939.54,968.16 2944.01,978 2947.5,989.65C2954.54,1013.16 2957.48,1043.81 2956.75,1086.1L2976.38,1086.44C2979.3,917.49 2925.75,889.04 2707.92,869.51Z" style="fill:url(#_Linear9);fill-rule:nonzero;"/>
            <path d="M2956.73,1086.11C2956.7,1088 2956.66,1089.9 2956.63,1091.8C2956.15,1120.36 2955.65,1149.9 2950.76,1177.08C2948.22,1191.21 2944.73,1203.55 2940.09,1214.82C2935,1227.19 2928.65,1237.97 2920.68,1247.79C2916.46,1252.98 2911.74,1257.93 2906.63,1262.51C2901.26,1267.32 2895.29,1271.88 2888.88,1276.07C2875.07,1285.08 2858.53,1292.81 2839.69,1299.02C2819.15,1305.8 2795.22,1311.01 2768.57,1314.51C2740.06,1318.25 2707.56,1320.15 2671.96,1320.15L2671.96,1339.78C2976.91,1339.78 2974.26,1205.82 2976.35,1086.46L2956.73,1086.11Z" style="fill:url(#_Linear10);fill-rule:nonzero;"/>
            <path d="M2344.72,1071.49C2340.5,1313.14 2465.2,1336.34 2652.85,1339.6C2659.36,1339.71 2665.72,1339.77 2671.97,1339.77L2671.97,1320.14C2665.84,1320.14 2659.53,1320.08 2653.19,1319.97C2613.76,1319.28 2568.08,1317.68 2528.21,1310.95C2509.35,1307.77 2493.02,1303.71 2478.29,1298.53C2462.84,1293.09 2449.59,1286.59 2437.79,1278.65C2425.55,1270.41 2415.25,1260.88 2406.3,1249.51C2401.7,1243.66 2397.44,1237.26 2393.63,1230.48C2389.7,1223.48 2386.12,1215.84 2382.99,1207.77C2376.45,1190.9 2371.57,1171.29 2368.48,1149.49C2365.98,1131.85 2364.58,1112.28 2364.29,1091.12L2344.72,1071.49Z" style="fill-rule:nonzero;"/>
            <path d="M2344.72,1071.49L2533.35,1071.59L2514.07,1091.21L2364.3,1091.13L2344.72,1071.49Z" style="fill:rgb(177,179,182);fill-rule:nonzero;"/>
            <path d="M2533.35,1071.59C2532.01,1148.21 2559.38,1159.74 2655.66,1161.44L2655.32,1181.07C2604.21,1180.17 2570.08,1176.58 2546.89,1160.87C2540.34,1156.44 2534.73,1151.02 2530.19,1144.79C2525.79,1138.74 2522.26,1131.68 2519.69,1123.82C2516.67,1114.59 2514.83,1103.98 2514.07,1091.22L2533.35,1071.59Z" style="fill:url(#_Linear11);fill-rule:nonzero;"/>
            <path d="M2779.64,1095.79C2778.66,1152.27 2753.14,1161.66 2678.5,1161.66C2671.35,1161.66 2663.73,1161.57 2655.65,1161.43L2655.31,1181.06C2664.23,1181.21 2671.81,1181.29 2678.49,1181.29C2700.13,1181.29 2715.49,1180.51 2728.3,1178.76C2744.47,1176.55 2756.67,1172.74 2766.71,1166.78C2772.48,1163.35 2777.54,1159.14 2781.74,1154.28C2785.92,1149.43 2789.38,1143.79 2792.02,1137.5C2794.46,1131.67 2796.23,1125.31 2797.44,1118.05C2798.53,1111.48 2799.13,1104.32 2799.27,1096.14L2779.64,1095.79Z" style="fill:url(#_Linear12);fill-rule:nonzero;"/>
            <path d="M2779.64,1095.79C2780.76,1031.94 2769.93,1032.74 2677.69,1025.22L2634.51,1021.52C2452.99,1005.59 2346.86,1004.71 2350.56,793.51L2370.19,793.85C2369.77,817.9 2370.85,839.6 2373.39,858.35C2375.81,876.19 2379.66,892.07 2384.82,905.54C2389.69,918.26 2395.7,928.98 2403.18,938.31C2410.24,947.12 2418.48,954.52 2428.37,960.93C2469.51,987.6 2534.19,993.17 2616.08,1000.21C2622.62,1000.77 2629.39,1001.35 2636.21,1001.95L2679.34,1005.64C2681.68,1005.83 2683.97,1006.02 2686.21,1006.2C2707.96,1007.96 2725.14,1009.36 2738.88,1011.5C2746.61,1012.7 2753.04,1014.12 2758.54,1015.83C2765.25,1017.91 2770.87,1020.51 2775.71,1023.77C2786.32,1030.91 2793.09,1041.12 2796.43,1054.98C2798.8,1064.82 2799.62,1076.74 2799.28,1096.12L2779.64,1095.79Z" style="fill-rule:nonzero;"/>
            <path d="M2350.56,793.51C2354.05,593.4 2461.18,560.91 2636.22,560.91L2636.22,580.54C2588.38,580.54 2551.98,583.05 2521.67,588.44C2487.71,594.48 2461,604.29 2440.04,618.44C2417.81,633.44 2401.48,653.72 2390.11,680.43C2384.01,694.76 2379.26,711.28 2375.97,729.54C2372.54,748.61 2370.59,770.24 2370.18,793.85L2350.56,793.51Z" style="fill:url(#_Linear13);fill-rule:nonzero;"/>
            <path d="M3078.44,1320.58L3078.44,579.23L3098.06,598.86L3098.06,1300.95L3078.44,1320.58Z" style="fill-rule:nonzero;"/>
            <path d="M3078.44,579.23L3467.89,579.23C3615.16,579.23 3702.14,606.9 3702.14,769.02L3682.51,769.02C3682.51,750.09 3681.24,732.75 3678.74,717.49C3676.36,702.95 3672.78,689.82 3668.09,678.44C3659.43,657.4 3646.71,641.42 3629.23,629.58C3612.47,618.23 3590.86,610.33 3563.18,605.41C3538.01,600.94 3507.73,598.86 3467.88,598.86L3098.06,598.86L3078.44,579.23Z" style="fill:rgb(213,215,216);fill-rule:nonzero;"/>
            <path d="M3276.13,741.35L3276.13,875.78L3256.5,895.41L3256.5,721.72L3276.13,741.35Z" style="fill:rgb(205,207,208);fill-rule:nonzero;"/>
            <path d="M3276.13,1013.18L3276.13,1158.48L3256.5,1178.11L3256.5,993.55L3276.13,1013.18Z" style="fill:rgb(177,179,182);fill-rule:nonzero;"/>
            <path d="M3276.13,1013.18L3429.34,1013.18C3493.58,1013.18 3516.32,1022.07 3516.32,1083.35L3535.95,1083.35C3535.95,1065.44 3534.18,1051.77 3530.4,1040.35C3528.25,1033.86 3525.36,1028 3521.82,1022.95C3518.13,1017.69 3513.62,1013.11 3508.4,1009.35C3503.49,1005.81 3498.03,1002.99 3491.71,1000.73C3486.18,998.75 3480.11,997.25 3473.15,996.13C3461.96,994.34 3448.46,993.54 3429.35,993.54L3256.5,993.54L3276.13,1013.18Z" style="fill-rule:nonzero;"/>
            <path d="M3276.13,1158.48L3425.38,1158.48C3489.63,1158.48 3516.32,1143.64 3516.32,1083.35L3535.95,1083.35C3535.95,1100.84 3533.89,1115.15 3529.64,1127.1C3527.3,1133.68 3524.23,1139.69 3520.52,1144.95C3516.71,1150.34 3512.12,1155.11 3506.87,1159.13C3497.3,1166.45 3485.43,1171.47 3470.59,1174.47C3458.28,1176.96 3443.91,1178.12 3425.39,1178.12L3256.5,1178.12L3276.13,1158.48Z" style="fill:url(#_Linear14);fill-rule:nonzero;"/>
            <path d="M3276.13,741.35L3442.18,741.35C3497.53,743.32 3504.46,760.13 3504.46,804.6L3524.09,804.6C3524.09,790.49 3523.4,780.9 3521.79,772.52C3519.55,760.88 3515.34,751.62 3508.93,744.2C3502.06,736.25 3492.91,730.63 3480.94,727.02C3470.87,723.98 3458.78,722.3 3442.88,721.73L3442.18,721.72L3256.5,721.72L3276.13,741.35Z" style="fill-rule:nonzero;"/>
            <path d="M3276.13,875.78L3418.46,875.78C3487.64,875.78 3504.45,863.92 3504.45,804.61L3524.08,804.61C3524.08,822.11 3522.67,835.29 3519.64,846.06C3517.8,852.62 3515.37,858.31 3512.22,863.45C3508.86,868.93 3504.66,873.73 3499.73,877.71C3495.03,881.5 3489.52,884.68 3483.33,887.14C3477.78,889.35 3471.64,891.05 3464.56,892.32C3452.7,894.46 3438.48,895.41 3418.45,895.41L3256.5,895.41L3276.13,875.78Z" style="fill:url(#_Linear15);fill-rule:nonzero;"/>
            <path d="M3585.5,944.53L3585.5,943.67L3565.87,926.96L3565.87,962.96L3585.5,944.53Z" style="fill:rgb(177,179,182);fill-rule:nonzero;"/>
            <path d="M3585.5,943.67C3683.36,927.85 3702.13,862.92 3702.13,769.02L3682.5,769.02C3682.5,793.6 3681.13,813.69 3678.31,830.44C3675.22,848.82 3670.34,863.72 3663.42,875.97C3656.25,888.66 3646.8,898.58 3634.54,906.31C3627.96,910.46 3620.41,914.04 3612.09,916.96C3603.25,920.07 3593.25,922.54 3582.36,924.3L3565.86,926.97L3585.5,943.67Z" style="fill:url(#_Linear16);fill-rule:nonzero;"/>
            <path d="M3585.5,944.53C3695.21,951.45 3714,1021.08 3714,1114L3694.37,1114C3694.37,1089.01 3692.99,1069.53 3690.02,1052.71C3686.75,1034.15 3681.57,1019.31 3674.18,1007.32C3666.43,994.74 3656.17,985.24 3642.8,978.28C3635.48,974.47 3627.06,971.36 3617.77,969.04C3607.81,966.55 3596.53,964.9 3584.26,964.13L3565.87,962.97L3585.5,944.53Z" style="fill:url(#_Linear17);fill-rule:nonzero;"/>
            <path d="M3078.44,1320.58L3471.84,1320.58C3629,1320.58 3714.01,1295.86 3714.01,1113.99L3694.38,1113.99C3694.38,1135.53 3693.12,1155.14 3690.63,1172.26C3688.24,1188.7 3684.62,1203.46 3679.89,1216.13C3675.37,1228.23 3669.88,1238.5 3663.12,1247.51C3656.7,1256.07 3649.31,1263.26 3640.53,1269.46C3631.91,1275.56 3622.17,1280.56 3610.77,1284.74C3599.58,1288.85 3587.12,1292.05 3572.67,1294.53C3559,1296.88 3543.8,1298.52 3526.21,1299.57C3510.54,1300.5 3492.76,1300.95 3471.85,1300.95L3098.08,1300.95L3078.44,1320.58Z" style="fill:url(#_Linear18);fill-rule:nonzero;"/>
            <path d="M495.83,712.46L433.67,753.18L414.04,789.51L495.83,735.93L495.83,712.46Z" style="fill:rgb(88,89,91);fill-rule:nonzero;"/>
            <path d="M557.99,753.18L495.83,712.46L495.83,735.93L577.62,789.51L557.99,753.18Z" style="fill-rule:nonzero;"/>
            <path d="M433.67,753.18L433.67,703.18C433.67,689.38 435.06,675.59 437.8,662.2C440.47,649.16 444.45,636.34 449.63,624.08C454.72,612.04 461.02,600.43 468.36,589.57C475.63,578.8 483.99,568.68 493.19,559.48C502.39,550.28 512.51,541.93 523.28,534.65C534.14,527.31 545.75,521.01 557.79,515.92C570.05,510.74 582.87,506.75 595.91,504.09C609.3,501.35 623.09,499.96 636.89,499.96L906.09,499.96L906.09,480.33L636.89,480.33C513.81,480.33 414.04,580.11 414.04,703.19L414.04,789.52L433.67,753.18Z" style="fill:url(#_Linear19);fill-rule:nonzero;"/>
            <path d="M495.83,774.66L414.04,828.04L433.67,838.67L495.83,798.1L495.83,774.66Z" style="fill:rgb(0,82,138);fill-rule:nonzero;"/>
            <path d="M495.83,798.1L557.99,838.67L577.62,828.04L495.83,774.66L495.83,798.1Z" style="fill:rgb(59,129,195);fill-rule:nonzero;"/>
            <path d="M577.62,1173.47L577.62,828.04L557.99,838.67L557.99,1173.47L577.62,1173.47Z" style="fill:rgb(59,129,195);fill-rule:nonzero;"/>
            <path d="M557.99,1173.47C557.99,1187.24 560.69,1200.61 566.02,1213.21C571.16,1225.37 578.52,1236.28 587.89,1245.65C597.26,1255.02 608.17,1262.38 620.33,1267.52C632.93,1272.85 646.3,1275.55 660.07,1275.55L660.07,1255.92C614.54,1255.92 577.63,1219.01 577.63,1173.48L557.99,1173.48L557.99,1173.47Z" style="fill:url(#_Linear20);fill-rule:nonzero;"/>
            <path d="M660.06,1275.54C673.83,1275.54 687.2,1272.84 699.8,1267.51C711.96,1262.37 722.87,1255.01 732.24,1245.64C741.61,1236.27 748.97,1225.36 754.11,1213.2C759.44,1200.6 762.14,1187.23 762.14,1173.46C762.14,1159.69 759.44,1146.32 754.11,1133.72C748.97,1121.56 741.61,1110.65 732.24,1101.28C722.87,1091.91 711.96,1084.55 699.8,1079.41C687.2,1074.08 673.83,1071.38 660.06,1071.38L633.78,1071.38L614.15,1091.01L660.06,1091.01C705.59,1091.01 742.5,1127.92 742.5,1173.45C742.5,1218.98 705.59,1255.89 660.06,1255.89L660.06,1275.54Z" style="fill:url(#_Linear21);fill-rule:nonzero;"/>
            <path d="M614.15,927.44L614.15,1091.02L633.78,1071.39L633.78,947.07L614.15,927.44Z" style="fill-rule:nonzero;"/>
            <path d="M633.78,947.07L660.06,947.07C675.43,947.07 690.79,948.62 705.71,951.67C720.24,954.64 734.53,959.08 748.18,964.85C761.59,970.52 774.53,977.54 786.63,985.72C798.62,993.82 809.9,1003.13 820.15,1013.38C830.4,1023.63 839.7,1034.91 847.81,1046.9C855.99,1059 863.01,1071.94 868.68,1085.35C874.46,1099 878.89,1113.29 881.86,1127.82C884.91,1142.74 886.46,1158.09 886.46,1173.47C886.46,1188.85 884.91,1204.2 881.86,1219.12C878.89,1233.65 874.45,1247.94 868.68,1261.59C863.01,1275 855.99,1287.94 847.81,1300.04C839.71,1312.03 830.4,1323.31 820.15,1333.56C809.9,1343.81 798.62,1353.11 786.63,1361.22C774.53,1369.4 761.59,1376.42 748.18,1382.09C734.53,1387.87 720.24,1392.3 705.71,1395.27C690.79,1398.32 675.44,1399.87 660.06,1399.87L660.06,1419.5C795.94,1419.5 906.09,1309.35 906.09,1173.47C906.09,1037.59 795.94,927.44 660.06,927.44L614.15,927.44L633.78,947.07Z" style="fill:url(#_Linear22);fill-rule:nonzero;"/>
            <path d="M928.88,1255.91C892.03,1373.91 790.38,1417.53 790.38,1417.53L853.82,1399.86C855.39,1398.57 856.97,1397.25 858.56,1395.89C877.21,1379.95 893.74,1361.93 907.68,1342.32C922.35,1321.7 934.17,1299.29 942.92,1275.54L928.88,1255.91Z" style="fill:rgb(0,69,121);fill-rule:nonzero;"/>
            <path d="M942.93,1275.54L1053.09,1275.54L1072.72,1255.91L928.88,1255.91L942.93,1275.54Z" style="fill:rgb(59,129,195);fill-rule:nonzero;"/>
            <path d="M1053.09,1275.54L1053.09,1399.86L1072.72,1419.49L1072.72,1255.91L1053.09,1275.54Z" style="fill:rgb(59,129,195);fill-rule:nonzero;"/>
            <path d="M790.38,1417.53L790.38,1419.49L1072.72,1419.49L1053.09,1399.86L853.82,1399.86L790.38,1417.53Z" style="fill-rule:nonzero;"/>
            <path d="M906.09,624.25L652.23,624.25C639.52,624.25 627.17,626.74 615.54,631.66C604.32,636.41 594.24,643.2 585.59,651.85C576.94,660.5 570.15,670.58 565.4,681.8C560.48,693.43 557.99,705.78 557.99,718.49L557.99,753.18L577.62,789.51L577.62,718.5C577.62,677.29 611.02,643.89 652.23,643.89L906.09,643.89L906.09,624.25Z" style="fill:url(#_Linear23);fill-rule:nonzero;"/>
            <path d="M906.09,643.88L1167.36,643.88C1208.57,643.88 1241.97,677.29 1241.97,718.49L1241.97,949.9L1261.6,949.9L1261.6,718.49C1261.6,705.78 1259.11,693.43 1254.19,681.8C1249.44,670.58 1242.65,660.5 1234,651.85C1225.35,643.2 1215.27,636.41 1204.05,631.66C1192.42,626.74 1180.08,624.25 1167.36,624.25L906.09,624.25L906.09,643.88Z" style="fill-rule:nonzero;"/>
            <path d="M1103.26,1419.49L1103.26,1255.91L1122.89,1275.54L1122.89,1399.86L1103.26,1419.49Z" style="fill-rule:nonzero;"/>
            <path d="M1103.26,1255.91L1167.37,1255.91C1208.58,1255.91 1241.98,1222.5 1241.98,1181.3L1241.98,949.91L1261.61,949.91L1261.61,1181.3C1261.61,1194.01 1259.12,1206.36 1254.2,1217.99C1249.45,1229.21 1242.66,1239.29 1234.01,1247.94C1225.36,1256.59 1215.28,1263.38 1204.06,1268.13C1192.43,1273.05 1180.09,1275.54 1167.37,1275.54L1122.89,1275.54L1103.26,1255.91Z" style="fill:url(#_Linear24);fill-rule:nonzero;"/>
            <path d="M906.09,480.32L1182.7,480.32C1305.78,480.32 1405.55,580.1 1405.55,703.18L1405.55,895.33L1385.92,895.33L1385.92,703.18C1385.92,689.38 1384.53,675.59 1381.79,662.2C1379.12,649.16 1375.14,636.34 1369.96,624.08C1364.87,612.04 1358.57,600.43 1351.23,589.57C1343.96,578.8 1335.6,568.68 1326.4,559.48C1317.2,550.28 1307.08,541.93 1296.31,534.65C1285.45,527.31 1273.84,521.01 1261.8,515.92C1249.54,510.74 1236.72,506.75 1223.68,504.09C1210.29,501.35 1196.5,499.96 1182.7,499.96L906.09,499.96L906.09,480.32Z" style="fill:url(#_Linear25);fill-rule:nonzero;"/>
            <path d="M414.04,828.04L414.04,1173.46C414.04,1309.34 524.19,1419.49 660.06,1419.49L660.06,1399.86C644.69,1399.86 629.33,1398.31 614.41,1395.26C599.88,1392.29 585.59,1387.85 571.94,1382.08C558.53,1376.41 545.59,1369.39 533.49,1361.21C521.5,1353.11 510.22,1343.8 499.97,1333.55C489.72,1323.3 480.42,1312.02 472.31,1300.03C464.13,1287.93 457.11,1274.99 451.44,1261.58C445.66,1247.93 441.23,1233.64 438.26,1219.11C435.21,1204.19 433.66,1188.84 433.66,1173.46L433.66,838.67L414.04,828.04Z" style="fill-rule:nonzero;"/>
            <path d="M1385.92,895.32L1385.92,1196.63C1385.92,1210.43 1384.53,1224.22 1381.79,1237.61C1379.12,1250.65 1375.14,1263.48 1369.96,1275.73C1364.87,1287.77 1358.57,1299.38 1351.23,1310.24C1343.96,1321.01 1335.6,1331.13 1326.4,1340.33C1317.2,1349.53 1307.08,1357.88 1296.31,1365.16C1285.45,1372.5 1273.84,1378.8 1261.8,1383.89C1249.54,1389.07 1236.72,1393.06 1223.68,1395.72C1210.29,1398.46 1196.5,1399.85 1182.7,1399.85L1122.88,1399.85L1103.25,1419.48L1182.7,1419.48C1305.78,1419.48 1405.55,1319.7 1405.55,1196.62L1405.55,895.32L1385.92,895.32Z" style="fill:url(#_Linear26);fill-rule:nonzero;"/>
        </g>
    </g>
    <defs>
        <linearGradient id="_Linear1" x1="0" y1="0" x2="1" y2="0" gradientUnits="userSpaceOnUse" gradientTransform="matrix(504.533,736.401,-736.401,504.533,3159.68,668)"><stop offset="0" style="stop-color:rgb(196,198,200);stop-opacity:1"/><stop offset="0.22" style="stop-color:rgb(196,198,200);stop-opacity:1"/><stop offset="1" style="stop-color:rgb(88,89,91);stop-opacity:1"/></linearGradient>
        <linearGradient id="_Linear2" x1="0" y1="0" x2="1" y2="0" gradientUnits="userSpaceOnUse" gradientTransform="matrix(362.834,-656.515,656.515,362.834,1789.19,1381.47)"><stop offset="0" style="stop-color:rgb(88,89,91);stop-opacity:1"/><stop offset="0" style="stop-color:rgb(88,89,91);stop-opacity:1"/><stop offset="0.7" style="stop-color:rgb(196,198,200);stop-opacity:1"/><stop offset="1" style="stop-color:rgb(196,198,200);stop-opacity:1"/></linearGradient>
        <linearGradient id="_Linear3" x1="0" y1="0" x2="1" y2="0" gradientUnits="userSpaceOnUse" gradientTransform="matrix(3.67197e-14,-599.679,599.679,3.67197e-14,2660.54,1418.2)"><stop offset="0" style="stop-color:rgb(88,89,91);stop-opacity:1"/><stop offset="0.21" style="stop-color:rgb(118,120,122);stop-opacity:1"/><stop offset="0.69" style="stop-color:rgb(191,193,195);stop-opacity:1"/><stop offset="0.72" style="stop-color:rgb(196,198,200);stop-opacity:1"/><stop offset="1" style="stop-color:rgb(196,198,200);stop-opacity:1"/></linearGradient>
        <linearGradient id="_Linear4" x1="0" y1="0" x2="1" y2="0" gradientUnits="userSpaceOnUse" gradientTransform="matrix(-493.495,859.98,-859.98,-493.495,1233.76,385.355)"><stop offset="0" style="stop-color:rgb(196,198,200);stop-opacity:1"/><stop offset="0.36" style="stop-color:rgb(196,198,200);stop-opacity:1"/><stop offset="1" style="stop-color:rgb(88,89,91);stop-opacity:1"/></linearGradient>
        <linearGradient id="_Linear5" x1="0" y1="0" x2="1" y2="0" gradientUnits="userSpaceOnUse" gradientTransform="matrix(-243.652,203.656,-203.656,-243.652,713.484,1013.61)"><stop offset="0" style="stop-color:rgb(0,102,179);stop-opacity:1"/><stop offset="1" style="stop-color:rgb(0,72,132);stop-opacity:1"/></linearGradient>
        <linearGradient id="_Linear6" x1="0" y1="0" x2="1" y2="0" gradientUnits="userSpaceOnUse" gradientTransform="matrix(228.634,-312.61,312.61,228.634,2066.58,927.638)"><stop offset="0" style="stop-color:rgb(167,169,172);stop-opacity:1"/><stop offset="1" style="stop-color:rgb(167,169,172);stop-opacity:1"/></linearGradient>
        <linearGradient id="_Linear7" x1="0" y1="0" x2="1" y2="0" gradientUnits="userSpaceOnUse" gradientTransform="matrix(162.856,-230.946,230.946,162.856,1922.93,839.894)"><stop offset="0" style="stop-color:black;stop-opacity:1"/><stop offset="0.17" style="stop-color:rgb(22,22,23);stop-opacity:1"/><stop offset="0.39" style="stop-color:rgb(60,59,61);stop-opacity:1"/><stop offset="0.64" style="stop-color:rgb(86,87,89);stop-opacity:1"/><stop offset="0.9" style="stop-color:rgb(117,118,121);stop-opacity:1"/><stop offset="1" style="stop-color:rgb(128,130,133);stop-opacity:1"/></linearGradient>
        <linearGradient id="_Linear8" x1="0" y1="0" x2="1" y2="0" gradientUnits="userSpaceOnUse" gradientTransform="matrix(1.431e-14,-233.7,233.7,1.431e-14,1890.79,846.257)"><stop offset="0" style="stop-color:rgb(205,207,208);stop-opacity:1"/><stop offset="1" style="stop-color:rgb(213,215,216);stop-opacity:1"/></linearGradient>
        <linearGradient id="_Linear9" x1="0" y1="0" x2="1" y2="0" gradientUnits="userSpaceOnUse" gradientTransform="matrix(-1.4878,123.625,-123.625,-1.4878,2754.4,733.524)"><stop offset="0" style="stop-color:black;stop-opacity:1"/><stop offset="0.1" style="stop-color:black;stop-opacity:1"/><stop offset="1" style="stop-color:rgb(213,215,216);stop-opacity:1"/></linearGradient>
        <linearGradient id="_Linear10" x1="0" y1="0" x2="1" y2="0" gradientUnits="userSpaceOnUse" gradientTransform="matrix(187.853,-166.072,166.072,187.853,2774.3,1317.69)"><stop offset="0" style="stop-color:black;stop-opacity:1"/><stop offset="0.11" style="stop-color:rgb(20,20,21);stop-opacity:1"/><stop offset="0.25" style="stop-color:rgb(55,55,56);stop-opacity:1"/><stop offset="0.4" style="stop-color:rgb(82,83,85);stop-opacity:1"/><stop offset="0.57" style="stop-color:rgb(111,112,115);stop-opacity:1"/><stop offset="0.73" style="stop-color:rgb(144,146,148);stop-opacity:1"/><stop offset="0.9" style="stop-color:rgb(186,188,190);stop-opacity:1"/><stop offset="1" style="stop-color:rgb(213,215,216);stop-opacity:1"/></linearGradient>
        <linearGradient id="_Linear11" x1="0" y1="0" x2="1" y2="0" gradientUnits="userSpaceOnUse" gradientTransform="matrix(99.5091,0,0,99.5091,2539.69,1126.32)"><stop offset="0" style="stop-color:rgb(177,179,182);stop-opacity:1"/><stop offset="1" style="stop-color:rgb(147,149,152);stop-opacity:1"/></linearGradient>
        <linearGradient id="_Linear12" x1="0" y1="0" x2="1" y2="0" gradientUnits="userSpaceOnUse" gradientTransform="matrix(133.105,-54.8146,54.8146,133.105,2670,1174.18)"><stop offset="0" style="stop-color:rgb(147,149,152);stop-opacity:1"/><stop offset="0.26" style="stop-color:rgb(147,149,152);stop-opacity:1"/><stop offset="0.4" style="stop-color:rgb(132,134,136);stop-opacity:1"/><stop offset="0.69" style="stop-color:rgb(90,91,93);stop-opacity:1"/><stop offset="0.95" style="stop-color:black;stop-opacity:1"/><stop offset="1" style="stop-color:black;stop-opacity:1"/></linearGradient>
        <linearGradient id="_Linear13" x1="0" y1="0" x2="1" y2="0" gradientUnits="userSpaceOnUse" gradientTransform="matrix(149.356,-186.493,186.493,149.356,2373.87,784.07)"><stop offset="0" style="stop-color:black;stop-opacity:1"/><stop offset="0.27" style="stop-color:rgb(99,100,103);stop-opacity:1"/><stop offset="0.61" style="stop-color:rgb(158,160,163);stop-opacity:1"/><stop offset="0.86" style="stop-color:rgb(198,200,202);stop-opacity:1"/><stop offset="0.98" style="stop-color:rgb(213,215,216);stop-opacity:1"/><stop offset="1" style="stop-color:rgb(213,215,216);stop-opacity:1"/></linearGradient>
        <linearGradient id="_Linear14" x1="0" y1="0" x2="1" y2="0" gradientUnits="userSpaceOnUse" gradientTransform="matrix(75.9983,-55.5343,55.5343,75.9983,3426.91,1132.93)"><stop offset="0" style="stop-color:rgb(167,169,172);stop-opacity:1"/><stop offset="0" style="stop-color:rgb(167,169,172);stop-opacity:1"/><stop offset="1" style="stop-color:black;stop-opacity:1"/></linearGradient>
        <linearGradient id="_Linear15" x1="0" y1="0" x2="1" y2="0" gradientUnits="userSpaceOnUse" gradientTransform="matrix(52.4304,-87.2293,87.2293,52.4304,3392.19,866.402)"><stop offset="0" style="stop-color:rgb(188,190,192);stop-opacity:1"/><stop offset="0.12" style="stop-color:rgb(178,180,183);stop-opacity:1"/><stop offset="0.32" style="stop-color:rgb(153,155,158);stop-opacity:1"/><stop offset="0.6" style="stop-color:rgb(115,117,119);stop-opacity:1"/><stop offset="0.93" style="stop-color:rgb(45,45,46);stop-opacity:1"/><stop offset="1" style="stop-color:black;stop-opacity:1"/></linearGradient>
        <linearGradient id="_Linear16" x1="0" y1="0" x2="1" y2="0" gradientUnits="userSpaceOnUse" gradientTransform="matrix(94.5938,-151.761,151.761,94.5938,3602.07,940.276)"><stop offset="0" style="stop-color:rgb(65,64,66);stop-opacity:1"/><stop offset="0.12" style="stop-color:rgb(78,79,81);stop-opacity:1"/><stop offset="0.36" style="stop-color:rgb(111,112,115);stop-opacity:1"/><stop offset="0.68" style="stop-color:rgb(157,159,162);stop-opacity:1"/><stop offset="1" style="stop-color:rgb(213,215,216);stop-opacity:1"/></linearGradient>
        <linearGradient id="_Linear17" x1="0" y1="0" x2="1" y2="0" gradientUnits="userSpaceOnUse" gradientTransform="matrix(85.9326,91.6163,-91.6163,85.9326,3620.96,977.59)"><stop offset="0" style="stop-color:rgb(177,179,182);stop-opacity:1"/><stop offset="0.31" style="stop-color:rgb(173,175,178);stop-opacity:1"/><stop offset="1" style="stop-color:rgb(147,149,152);stop-opacity:1"/></linearGradient>
        <linearGradient id="_Linear18" x1="0" y1="0" x2="1" y2="0" gradientUnits="userSpaceOnUse" gradientTransform="matrix(425.814,-328.298,328.298,425.814,3200.28,1427.96)"><stop offset="0" style="stop-color:black;stop-opacity:1"/><stop offset="0.77" style="stop-color:black;stop-opacity:1"/><stop offset="0.92" style="stop-color:rgb(114,116,118);stop-opacity:1"/><stop offset="1" style="stop-color:rgb(147,149,152);stop-opacity:1"/></linearGradient>
        <linearGradient id="_Linear19" x1="0" y1="0" x2="1" y2="0" gradientUnits="userSpaceOnUse" gradientTransform="matrix(232.818,-228.464,228.464,232.818,429.015,781.519)"><stop offset="0" style="stop-color:black;stop-opacity:1"/><stop offset="0.12" style="stop-color:rgb(20,20,21);stop-opacity:1"/><stop offset="0.26" style="stop-color:rgb(56,55,57);stop-opacity:1"/><stop offset="0.42" style="stop-color:rgb(83,83,85);stop-opacity:1"/><stop offset="0.58" style="stop-color:rgb(111,113,115);stop-opacity:1"/><stop offset="0.76" style="stop-color:rgb(145,147,149);stop-opacity:1"/><stop offset="0.93" style="stop-color:rgb(187,189,191);stop-opacity:1"/><stop offset="1" style="stop-color:rgb(205,207,208);stop-opacity:1"/></linearGradient>
        <linearGradient id="_Linear20" x1="0" y1="0" x2="1" y2="0" gradientUnits="userSpaceOnUse" gradientTransform="matrix(102.074,0,0,102.074,557.988,1224.51)"><stop offset="0" style="stop-color:rgb(59,129,195);stop-opacity:1"/><stop offset="1" style="stop-color:rgb(59,129,195);stop-opacity:1"/></linearGradient>
        <linearGradient id="_Linear21" x1="0" y1="0" x2="1" y2="0" gradientUnits="userSpaceOnUse" gradientTransform="matrix(9.42878e-15,153.984,-153.984,9.42878e-15,688.145,1091.61)"><stop offset="0" style="stop-color:black;stop-opacity:1"/><stop offset="1" style="stop-color:rgb(59,129,195);stop-opacity:1"/></linearGradient>
        <linearGradient id="_Linear22" x1="0" y1="0" x2="1" y2="0" gradientUnits="userSpaceOnUse" gradientTransform="matrix(2.4088e-14,393.388,-393.388,2.4088e-14,760.12,984.221)"><stop offset="0" style="stop-color:rgb(59,129,195);stop-opacity:1"/><stop offset="0.18" style="stop-color:rgb(58,126,192);stop-opacity:1"/><stop offset="0.31" style="stop-color:rgb(54,121,185);stop-opacity:1"/><stop offset="0.43" style="stop-color:rgb(48,113,174);stop-opacity:1"/><stop offset="0.54" style="stop-color:rgb(39,101,160);stop-opacity:1"/><stop offset="0.64" style="stop-color:rgb(27,85,140);stop-opacity:1"/><stop offset="0.74" style="stop-color:rgb(8,67,117);stop-opacity:1"/><stop offset="0.83" style="stop-color:rgb(0,45,91);stop-opacity:1"/><stop offset="0.92" style="stop-color:rgb(0,15,60);stop-opacity:1"/><stop offset="1" style="stop-color:black;stop-opacity:1"/></linearGradient>
        <linearGradient id="_Linear23" x1="0" y1="0" x2="1" y2="0" gradientUnits="userSpaceOnUse" gradientTransform="matrix(128.646,-100.614,100.614,128.646,600.428,761.145)"><stop offset="0" style="stop-color:rgb(177,179,182);stop-opacity:1"/><stop offset="0.16" style="stop-color:rgb(177,179,182);stop-opacity:1"/><stop offset="0.86" style="stop-color:black;stop-opacity:1"/><stop offset="1" style="stop-color:black;stop-opacity:1"/></linearGradient>
        <linearGradient id="_Linear24" x1="0" y1="0" x2="1" y2="0" gradientUnits="userSpaceOnUse" gradientTransform="matrix(-46.9703,82.6762,-82.6762,-46.9703,1201.38,1166.79)"><stop offset="0" style="stop-color:black;stop-opacity:1"/><stop offset="1" style="stop-color:rgb(147,149,152);stop-opacity:1"/></linearGradient>
        <linearGradient id="_Linear25" x1="0" y1="0" x2="1" y2="0" gradientUnits="userSpaceOnUse" gradientTransform="matrix(361.966,305.685,-305.685,361.966,1042.35,453.99)"><stop offset="0" style="stop-color:rgb(205,207,208);stop-opacity:1"/><stop offset="0.46" style="stop-color:rgb(213,215,216);stop-opacity:1"/><stop offset="1" style="stop-color:rgb(213,215,216);stop-opacity:1"/></linearGradient>
        <linearGradient id="_Linear26" x1="0" y1="0" x2="1" y2="0" gradientUnits="userSpaceOnUse" gradientTransform="matrix(95.9406,-273.125,273.125,95.9406,1234,1385.26)"><stop offset="0" style="stop-color:black;stop-opacity:1"/><stop offset="0.02" style="stop-color:rgb(19,19,19);stop-opacity:1"/><stop offset="0.55" style="stop-color:rgb(165,167,170);stop-opacity:1"/><stop offset="0.79" style="stop-color:rgb(213,215,216);stop-opacity:1"/><stop offset="1" style="stop-color:rgb(213,215,216);stop-opacity:1"/></linearGradient>
    </defs>
</svg>
