<?xml version="1.0" encoding="utf-8"?>
<!-- Generator: Adobe Illustrator 27.1.1, SVG Export Plug-In . SVG Version: 6.00 Build 0)  -->
<svg version="1.1" id="Layer_2" xmlns="http://www.w3.org/2000/svg" xmlns:xlink="http://www.w3.org/1999/xlink" x="0px" y="0px"
	 viewBox="0 0 426.6 109.7" style="enable-background:new 0 0 426.6 109.7;" xml:space="preserve">
<style type="text/css">
	.st0{fill:#ECBB68;}
</style>
<path id="ICON" class="st0" d="M48.9,107.5c-1.2,0-2.4-0.3-3.5-0.9l-15.5-9c-2.2-1.2-3.5-3.6-3.5-6.1V69.4h-17c-3.9,0-7-3.1-7-7V32
	c0-2.5,1.3-4.8,3.5-6L45.4,3c2.2-1.3,4.9-1.3,7,0l39.8,23c2.2,1.2,3.5,3.6,3.5,6.1v45.6c0,2.5-1.3,4.8-3.5,6.1l-39.8,22.9
	C51.4,107.2,50.1,107.5,48.9,107.5z M32.4,71.4v20.1c0,0.4,0.2,0.7,0.5,0.9l15.5,9c0.3,0.2,0.7,0.2,1,0l39.8-22.9
	c0.3-0.2,0.5-0.5,0.5-0.9V32c0-0.4-0.2-0.7-0.5-0.9l-39.8-23c0,0,0,0,0,0c-0.3-0.2-0.7-0.2-1,0L9,31.1c-0.3,0.2-0.5,0.5-0.5,0.9
	v30.4c0,0.6,0.4,1,1,1h17V43.7c0-2.5,1.4-4.9,3.6-6.1l15.5-8.7c2.1-1.2,4.7-1.2,6.8,0l15.9,8.7c2.2,1.2,3.6,3.6,3.6,6.1V64
	c0,2.6-1.4,4.9-3.7,6.2l-15.9,8.6c-2.1,1.1-4.6,1.1-6.7,0L32.4,71.4z M32.4,64.5l16,8.9c0.3,0.2,0.7,0.2,1,0l15.9-8.6
	c0.3-0.2,0.5-0.5,0.5-0.9V43.7c0-0.4-0.2-0.7-0.5-0.9l-15.9-8.7c-0.3-0.2-0.7-0.2-1,0L33,42.8c-0.3,0.2-0.5,0.5-0.5,0.9V64.5z"/>
<g id="PHOTON">
	<path class="st0" d="M145.4,39.8c2.4,1,4.2,2.5,5.4,4.5c1.3,1.9,1.9,4.3,1.9,6.9c0,2.6-0.6,5-1.9,6.9c-1.3,2-3.1,3.5-5.4,4.5
		c-2.3,1-5.1,1.6-8.3,1.6h-8.3v10.5H122V38.3h15C140.2,38.3,143,38.8,145.4,39.8z M143.5,56.7c1.5-1.3,2.3-3,2.3-5.4
		c0-2.3-0.8-4.1-2.3-5.4c-1.5-1.3-3.8-1.9-6.7-1.9h-7.9v14.5h7.9C139.7,58.5,142,57.9,143.5,56.7z"/>
	<path class="st0" d="M203.9,38.3v36.6h-6.8V59.2h-18.9v15.7h-6.8V38.3h6.8v15.1h18.9V38.3H203.9z"/>
	<path class="st0" d="M232,72.9c-3-1.6-5.3-3.9-7-6.7c-1.7-2.9-2.6-6.1-2.6-9.6c0-3.6,0.9-6.8,2.6-9.6c1.7-2.9,4.1-5.1,7-6.7
		c3-1.6,6.4-2.4,10.1-2.4c3.7,0,7.1,0.8,10.1,2.4c3,1.6,5.3,3.9,7.1,6.7c1.7,2.9,2.6,6.1,2.6,9.7c0,3.6-0.9,6.8-2.6,9.7
		c-1.7,2.9-4.1,5.1-7.1,6.7c-3,1.6-6.4,2.4-10.1,2.4C238.3,75.4,235,74.5,232,72.9z M248.6,67.8c1.9-1.1,3.5-2.6,4.6-4.6
		c1.1-2,1.7-4.2,1.7-6.6s-0.6-4.6-1.7-6.6c-1.1-2-2.6-3.5-4.6-4.6c-2-1.1-4.1-1.6-6.6-1.6c-2.4,0-4.6,0.5-6.6,1.6
		c-1.9,1.1-3.5,2.6-4.6,4.6c-1.1,2-1.7,4.2-1.7,6.6s0.6,4.6,1.7,6.6c1.1,2,2.6,3.5,4.6,4.6c1.9,1.1,4.1,1.6,6.6,1.6
		C244.5,69.4,246.7,68.9,248.6,67.8z"/>
	<path class="st0" d="M285.8,44h-12.1v-5.7h31V44h-12.1v30.8h-6.8V44z"/>
	<path class="st0" d="M329.6,72.9c-3-1.6-5.3-3.9-7-6.7c-1.7-2.9-2.6-6.1-2.6-9.6c0-3.6,0.9-6.8,2.6-9.6c1.7-2.9,4.1-5.1,7-6.7
		c3-1.6,6.4-2.4,10.1-2.4s7.1,0.8,10.1,2.4c3,1.6,5.3,3.9,7.1,6.7c1.7,2.9,2.6,6.1,2.6,9.7c0,3.6-0.9,6.8-2.6,9.7
		c-1.7,2.9-4.1,5.1-7.1,6.7c-3,1.6-6.4,2.4-10.1,2.4S332.6,74.5,329.6,72.9z M346.2,67.8c1.9-1.1,3.5-2.6,4.6-4.6
		c1.1-2,1.7-4.2,1.7-6.6s-0.6-4.6-1.7-6.6c-1.1-2-2.6-3.5-4.6-4.6c-2-1.1-4.1-1.6-6.6-1.6c-2.4,0-4.6,0.5-6.6,1.6
		c-1.9,1.1-3.5,2.6-4.6,4.6c-1.1,2-1.7,4.2-1.7,6.6s0.6,4.6,1.7,6.6c1.1,2,2.6,3.5,4.6,4.6c1.9,1.1,4.1,1.6,6.6,1.6
		C342.1,69.4,344.3,68.9,346.2,67.8z"/>
	<path class="st0" d="M409,38.3v36.6h-5.6l-20.2-24.8v24.8h-6.7V38.3h5.6L402.3,63V38.3H409z"/>
</g>
<g>
	<path class="st0" d="M416.5,45.5c-1-0.6-1.7-1.3-2.2-2.3c-0.5-1-0.8-2.1-0.8-3.3c0-1.2,0.3-2.3,0.8-3.2c0.5-1,1.2-1.7,2.2-2.3
		c1-0.6,2.1-0.9,3.3-0.9c1.3,0,2.4,0.3,3.3,0.9c1,0.6,1.7,1.3,2.2,2.3c0.5,1,0.8,2.1,0.8,3.2c0,1.2-0.3,2.3-0.8,3.3
		c-0.5,1-1.2,1.7-2.2,2.3s-2.1,0.9-3.3,0.9C418.6,46.3,417.4,46,416.5,45.5z M422.5,44.6c0.8-0.5,1.4-1.1,1.8-1.9s0.6-1.7,0.6-2.7
		c0-1-0.2-1.9-0.6-2.7s-1-1.5-1.8-1.9c-0.8-0.5-1.7-0.7-2.7-0.7c-1,0-1.9,0.2-2.7,0.7c-0.8,0.5-1.4,1.1-1.8,1.9s-0.6,1.7-0.6,2.7
		c0,1,0.2,1.9,0.6,2.7s1,1.5,1.8,1.9c0.8,0.5,1.7,0.7,2.7,0.7C420.9,45.3,421.8,45,422.5,44.6z M417.6,36.4h2.6
		c0.7,0,1.2,0.2,1.7,0.7c0.4,0.5,0.6,1,0.6,1.6c0,0.5-0.1,0.9-0.4,1.3c-0.3,0.4-0.6,0.7-1.1,0.8l1.5,2.3h-1.2l-1.3-2.2h-1.3v2.2
		h-1.1V36.4z M420.1,40.1c0.4,0,0.7-0.1,1-0.4s0.4-0.6,0.4-1c0-0.4-0.1-0.7-0.4-1c-0.2-0.3-0.6-0.4-1-0.4h-1.5v2.8H420.1z"/>
</g>
</svg>
