<svg id="Layer_2" data-name="Layer 2" xmlns="http://www.w3.org/2000/svg" width="256.187" height="63.157" viewBox="0 0 256.187 63.157">
  <g id="Layer_10" data-name="Layer 10" transform="translate(0 0)">
    <path id="Path_1" data-name="Path 1" d="M135.41,54.346V39.23H141.5a4.9,4.9,0,0,1,3.89,1.524,5.033,5.033,0,0,1,1.147,3.483h0a5.318,5.318,0,0,1-.762,2.942,4.535,4.535,0,0,1-2.1,1.738l3.259,5.4H143.5l-2.859-4.84h-2.308v4.84Zm2.9-7.767h2.976a2.281,2.281,0,0,0,1.662-.587,2.073,2.073,0,0,0,.6-1.524h0a2.066,2.066,0,0,0-.61-1.608,2.416,2.416,0,0,0-1.7-.556h-2.9v4.345ZM151.8,54.551a3.525,3.525,0,0,1-2.5-.938,3.379,3.379,0,0,1-1-2.592v-.046a3.4,3.4,0,0,1,1.11-2.759,4.5,4.5,0,0,1,2.968-.93,6.672,6.672,0,0,1,2.489.48v-.191A2.119,2.119,0,0,0,154.315,46a2.256,2.256,0,0,0-1.633-.541,7.345,7.345,0,0,0-2.816.633l-.726-2.508a9.4,9.4,0,0,1,1.836-.7,8.834,8.834,0,0,1,2.126-.229,4.36,4.36,0,0,1,3.447,1.3,5.424,5.424,0,0,1,1.1,3.689v6.715h-2.8V53.088A3.758,3.758,0,0,1,151.8,54.551Zm.878-2.287a2.37,2.37,0,0,0,1.633-.564,1.861,1.861,0,0,0,.631-1.456v-.579a3.869,3.869,0,0,0-1.843-.434,2.344,2.344,0,0,0-1.451.412,1.407,1.407,0,0,0-.53,1.181h0a1.294,1.294,0,0,0,.435,1.029,1.692,1.692,0,0,0,1.147.374Zm13.578,2.287a3.829,3.829,0,0,1-3.179-1.715v1.524h-2.9V38.59h2.9v5.846a3.7,3.7,0,0,1,3.179-1.875,3.915,3.915,0,0,1,1.734.4,4.74,4.74,0,0,1,1.451,1.128,5.524,5.524,0,0,1,1.038,1.9,7.884,7.884,0,0,1,.392,2.554h0A8.142,8.142,0,0,1,170.5,51.1a5.406,5.406,0,0,1-1.038,1.89,4.655,4.655,0,0,1-1.451,1.136,4.108,4.108,0,0,1-1.756.389Zm-.726-2.782a2.182,2.182,0,0,0,1.764-.884,3.5,3.5,0,0,0,.726-2.287h0a3.5,3.5,0,0,0-.726-2.287,2.177,2.177,0,0,0-3.52,0,3.512,3.512,0,0,0-.726,2.287h0a3.528,3.528,0,0,0,.726,2.287A2.19,2.19,0,0,0,165.535,51.769Zm13.6,2.782a3.829,3.829,0,0,1-3.179-1.715v1.524h-2.9V38.59h2.9v5.846a3.688,3.688,0,0,1,3.179-1.875,3.963,3.963,0,0,1,1.734.4,4.712,4.712,0,0,1,1.451,1.128,5.529,5.529,0,0,1,1.045,1.9,7.885,7.885,0,0,1,.392,2.554h0a8.141,8.141,0,0,1-.385,2.561,5.352,5.352,0,0,1-1.089,1.928,4.767,4.767,0,0,1-1.451,1.121,4.052,4.052,0,0,1-1.749.389Zm-.726-2.782a2.192,2.192,0,0,0,1.7-.884,3.5,3.5,0,0,0,.726-2.287h0a3.5,3.5,0,0,0-.726-2.287,2.184,2.184,0,0,0-3.527-.008,3.544,3.544,0,0,0-.726,2.287h0a3.567,3.567,0,0,0,.726,2.287,2.2,2.2,0,0,0,1.764.884Zm7.5-10.267V38.59h3.055V41.5ZM186,54.346V42.775h2.9V54.346Zm9.057.191a2.935,2.935,0,0,1-2.177-.762,3.744,3.744,0,0,1-.8-2.675V45.587h-1.219V42.775h1.219v-2.95h2.9v2.95h2.4v2.813h-2.4v4.939a1.3,1.3,0,0,0,.225.846.847.847,0,0,0,.726.274,2.644,2.644,0,0,0,1.451-.412v2.63a4.06,4.06,0,0,1-2.293.671Zm25.626-.191V42.295h-4.05V39.246h11.038v3.049h-4.021V54.346Zm11.946.259a5.2,5.2,0,0,0,2.845-.808,5.672,5.672,0,0,0,1.967-2.2,6.454,6.454,0,0,0,.726-3.049h0a6.343,6.343,0,0,0-.726-3.049,5.441,5.441,0,0,0-1.974-2.165,5.162,5.162,0,0,0-2.816-.8,5.275,5.275,0,0,0-2.177.473,5.392,5.392,0,0,0-1.742,1.311,6.149,6.149,0,0,0-1.154,1.921,6.441,6.441,0,0,0-.421,2.332v.046a6.454,6.454,0,0,0,.726,3.049,5.337,5.337,0,0,0,4.79,2.973Zm.044-2.836a2.364,2.364,0,0,1-1.93-.938,3.457,3.457,0,0,1-.726-2.287h0a3.518,3.518,0,0,1,.726-2.241,2.326,2.326,0,0,1,1.923-.907,2.38,2.38,0,0,1,1.872.922,3.484,3.484,0,0,1,.762,2.287v.046a3.479,3.479,0,0,1-.726,2.241,2.326,2.326,0,0,1-1.923.907Zm7.584,2.576V42.775h2.9V45.1q.965-2.653,3.258-2.538v3.43h-.16a2.726,2.726,0,0,0-2.286,1.021,4.87,4.87,0,0,0-.813,3.049v4.284Zm11.416.191a2.935,2.935,0,0,1-2.177-.762,3.744,3.744,0,0,1-.8-2.675V45.587h-1.219V42.775H248.7v-2.95h2.9v2.95H254v2.813h-2.4v4.939a1.3,1.3,0,0,0,.225.846.854.854,0,0,0,.726.274A2.637,2.637,0,0,0,254,51.236v2.63a4.06,4.06,0,0,1-2.293.671Zm9.173.069a5.148,5.148,0,0,1-2.816-.8,5.591,5.591,0,0,1-1.981-2.172,6.455,6.455,0,0,1-.726-3.049v-.046a6.592,6.592,0,0,1,.421-2.332,5.992,5.992,0,0,1,1.161-1.921A5.382,5.382,0,0,1,258.668,43a5.324,5.324,0,0,1,5,.328,5.441,5.441,0,0,1,1.974,2.165,6.343,6.343,0,0,1,.726,3.049h0a6.462,6.462,0,0,1-.726,3.049,5.615,5.615,0,0,1-1.988,2.2,5.162,5.162,0,0,1-2.838.808Zm.036-2.836a2.332,2.332,0,0,0,1.959-.907,3.518,3.518,0,0,0,.726-2.241v-.046a3.488,3.488,0,0,0-.726-2.287,2.392,2.392,0,0,0-1.93-.93,2.319,2.319,0,0,0-1.923.907,3.479,3.479,0,0,0-.726,2.241h0a3.5,3.5,0,0,0,.726,2.287,2.386,2.386,0,0,0,1.93.938ZM268.531,41.5V38.59h3.019V41.5Zm.116,12.844V42.775h2.9V54.346Zm9.2.206a6.146,6.146,0,0,1-2.3-.4,6.569,6.569,0,0,1-2.119-1.3l1.241-2.157a5.187,5.187,0,0,0,3.215,1.38,1.467,1.467,0,0,0,.922-.236.775.775,0,0,0,.3-.633v-.1a.737.737,0,0,0,0-.221.494.494,0,0,0-.109-.191,1.05,1.05,0,0,0-.377-.32l-.254-.122-.3-.13L277.74,50l-.356-.122-.37-.122c-.334-.107-.624-.221-.871-.328a4.635,4.635,0,0,1-.806-.457,3.007,3.007,0,0,1-.726-.633,2.92,2.92,0,0,1-.464-.884,3.506,3.506,0,0,1-.189-1.174h0a3.469,3.469,0,0,1,1.067-2.691,3.755,3.755,0,0,1,2.663-.976,5.964,5.964,0,0,1,1.981.351,6.585,6.585,0,0,1,1.829.983l-1.1,2.287a5.371,5.371,0,0,0-2.758-1.075,1.238,1.238,0,0,0-.791.221.7.7,0,0,0-.283.572V46a.688.688,0,0,0,.261.511,2.427,2.427,0,0,0,.588.373c.218.1.522.221.914.374l.312.122c.341.122.631.244.878.358a5.8,5.8,0,0,1,.82.465,3.141,3.141,0,0,1,.726.64,3.28,3.28,0,0,1,.668,1.974h0A3.5,3.5,0,0,1,280.65,53.6a4.145,4.145,0,0,1-2.83.945Zm10.821.053a4.9,4.9,0,0,1-3.825-1.677,6.21,6.21,0,0,1-1.509-4.307v-.046a7.15,7.15,0,0,1,.639-3.011,5.428,5.428,0,0,1,1.8-2.188,4.472,4.472,0,0,1,2.62-.816,4.649,4.649,0,0,1,2.177.518,4.177,4.177,0,0,1,1.56,1.4,6.481,6.481,0,0,1,.893,2,8.868,8.868,0,0,1,.3,2.332c0,.168,0,.457-.036.861h-7.112a2.949,2.949,0,0,0,.871,1.692,2.406,2.406,0,0,0,1.633.579,2.952,2.952,0,0,0,1.3-.282,4.27,4.27,0,0,0,1.168-.877l1.655,1.662a4.844,4.844,0,0,1-4.173,2.157Zm-2.489-6.952h4.354a3.262,3.262,0,0,0-.726-1.791,1.825,1.825,0,0,0-1.451-.663,1.874,1.874,0,0,0-1.451.656,3.459,3.459,0,0,0-.762,1.8Z" transform="translate(-37.137 -6.998)" fill="#fff"/>
    <path id="Path_2" data-name="Path 2" d="M239.34,51.875l-3.121-3.583a19.766,19.766,0,0,0,1.364-2.371c.421-.846.827-1.753,1.219-2.714l-1.662-.869q-.486,1.265-1.023,2.4a21.4,21.4,0,0,1-1.125,2.1l-4.079-4.711a7.984,7.984,0,0,0,3.128-2.035,5.162,5.162,0,0,0,.726-5.046,4.666,4.666,0,0,0-.878-1.471,4.23,4.23,0,0,0-1.364-.983,4.174,4.174,0,0,0-1.734-.358,4.8,4.8,0,0,0-1.938.373,4.393,4.393,0,0,0-1.451,1.029,4.6,4.6,0,0,0-.958,1.524,5.1,5.1,0,0,0-.348,1.89,5.639,5.639,0,0,0,.435,2.241,10.559,10.559,0,0,0,1.357,2.241,8.181,8.181,0,0,0-3.193,2.371,5.558,5.558,0,0,0-1.125,3.5,6.208,6.208,0,0,0,.421,2.332,5.353,5.353,0,0,0,1.176,1.807,5.161,5.161,0,0,0,1.785,1.151,6,6,0,0,0,2.235.412,6.228,6.228,0,0,0,3.193-.831,9.55,9.55,0,0,0,2.649-2.287l2.809,3.27Zm-6.1-14.948a3.21,3.21,0,0,1-.871,2.287A6.915,6.915,0,0,1,229.8,40.8a13.344,13.344,0,0,1-.835-1.082,6.778,6.778,0,0,1-.552-.938,4.136,4.136,0,0,1-.29-.838,4.082,4.082,0,0,1-.087-.869,3.087,3.087,0,0,1,.726-2.111,2.494,2.494,0,0,1,1.959-.838,2.315,2.315,0,0,1,1.814.762,2.9,2.9,0,0,1,.726,2.035Zm.508,11.594a8.51,8.51,0,0,1-2.083,1.921,4.341,4.341,0,0,1-2.38.709,3.746,3.746,0,0,1-1.51-.29,3.5,3.5,0,0,1-1.952-2.02,4.222,4.222,0,0,1,.552-3.987,5.811,5.811,0,0,1,2.584-1.883Z" transform="translate(-61.316 -5.488)" fill="#fff"/>
    <path id="Path_3" data-name="Path 3" d="M137.369,70.074h1.5v-.442H135.41v.442h1.5v4.284h.457Zm6.894,2.05h2.177v-.442h-2.177V70.074H146.6v-.442h-2.78v4.726h2.9v-.442h-2.409V72.124Zm10.886,1.2a1.885,1.885,0,0,1-.276.343,1.448,1.448,0,0,1-.319.221,1.176,1.176,0,0,1-.341.107,1.881,1.881,0,0,1-.356,0,1.726,1.726,0,0,1-1.357-.617,1.991,1.991,0,0,1-.363-.648,2.294,2.294,0,0,1-.131-.762,2.326,2.326,0,0,1,.131-.762,1.991,1.991,0,0,1,.363-.648,1.727,1.727,0,0,1,1.357-.617,1.436,1.436,0,0,1,.356.053,1.654,1.654,0,0,1,.334.145,1.234,1.234,0,0,1,.276.2,1.046,1.046,0,0,1,.189.229l.4-.313a1.7,1.7,0,0,0-.726-.579,2.21,2.21,0,0,0-.842-.168,2.329,2.329,0,0,0-.929.183,2.176,2.176,0,0,0-.726.518,2.419,2.419,0,0,0-.486.762,2.793,2.793,0,0,0,0,1.982,2.419,2.419,0,0,0,.486.762,2.176,2.176,0,0,0,.726.518,2.337,2.337,0,0,0,.929.191,1.981,1.981,0,0,0,.53-.069,2.112,2.112,0,0,0,.464-.183,1.655,1.655,0,0,0,.385-.282,1.5,1.5,0,0,0,.283-.335l-.37-.282Zm5.363,1.029h.457V72.124h2.446v2.233h.457V69.632h-.457v2.05h-2.453v-2.05h-.45Zm9.434-4.726h-.566v4.726h.457v-4.04h0l2.685,4.04h.566V69.632h-.457v4h0Zm12.991,2.363a2.578,2.578,0,0,0-.181-.991,2.42,2.42,0,0,0-.486-.762,2.176,2.176,0,0,0-.726-.518,2.448,2.448,0,0,0-1.858,0,2.176,2.176,0,0,0-.726.518,2.42,2.42,0,0,0-.486.762,2.793,2.793,0,0,0,0,1.982,2.42,2.42,0,0,0,.486.762,2.176,2.176,0,0,0,.726.518,2.358,2.358,0,0,0,1.858,0,2.176,2.176,0,0,0,.726-.518,2.42,2.42,0,0,0,.486-.762,2.578,2.578,0,0,0,.181-.991Zm-.493,0a2.294,2.294,0,0,1-.131.762,1.867,1.867,0,0,1-.363.648,1.778,1.778,0,0,1-2.714,0,1.99,1.99,0,0,1-.363-.648,2.3,2.3,0,0,1-.131-.762,2.326,2.326,0,0,1,.131-.762,1.991,1.991,0,0,1,.363-.648,1.808,1.808,0,0,1,.581-.45,1.88,1.88,0,0,1,1.553,0,1.808,1.808,0,0,1,.581.45,1.867,1.867,0,0,1,.363.648,2.326,2.326,0,0,1,.131.762Zm6.1-2.363h-.457v4.726h2.547v-.442h-2.09Zm11.336,2.363A2.578,2.578,0,0,0,199.7,71a2.3,2.3,0,0,0-.493-.762,2.176,2.176,0,0,0-.726-.518,2.448,2.448,0,0,0-1.858,0,2.236,2.236,0,0,0-1.234,1.3,2.793,2.793,0,0,0,0,1.982,2.236,2.236,0,0,0,1.234,1.3,2.358,2.358,0,0,0,1.858,0,2.176,2.176,0,0,0,.726-.518,2.3,2.3,0,0,0,.493-.762,2.578,2.578,0,0,0,.181-.991Zm-.493,0a2.294,2.294,0,0,1-.131.762,1.991,1.991,0,0,1-.363.648,1.778,1.778,0,0,1-2.714,0,1.867,1.867,0,0,1-.363-.648,2.294,2.294,0,0,1-.131-.762,2.326,2.326,0,0,1,.131-.762,1.867,1.867,0,0,1,.363-.648,1.809,1.809,0,0,1,.581-.45,1.88,1.88,0,0,1,1.553,0,1.809,1.809,0,0,1,.581.45,1.99,1.99,0,0,1,.363.648,2.325,2.325,0,0,1,.131.762Zm9.3-1.845a1.9,1.9,0,0,0-.726-.48,2.464,2.464,0,0,0-.929-.152,2.364,2.364,0,0,0-.936.183,2.241,2.241,0,0,0-.726.518,2.3,2.3,0,0,0-.494.762,2.9,2.9,0,0,0,0,1.982,2.3,2.3,0,0,0,.494.762,2.241,2.241,0,0,0,.726.518,2.371,2.371,0,0,0,.936.191,3.286,3.286,0,0,0,.864-.13,3.05,3.05,0,0,0,.835-.351V71.667h-1.531v.442h1.074v1.585a2.2,2.2,0,0,1-.573.244,2.439,2.439,0,0,1-.668.091,1.7,1.7,0,0,1-.777-.168,1.735,1.735,0,0,1-.581-.45,2,2,0,0,1-.37-.648,2.486,2.486,0,0,1-.123-.762,2.519,2.519,0,0,1,.123-.762,2,2,0,0,1,.37-.648,1.735,1.735,0,0,1,.581-.45,1.8,1.8,0,0,1,.777-.168,1.711,1.711,0,0,1,.726.152,1.6,1.6,0,0,1,.544.4l.341-.351Zm6.96,2.172,1.684-2.691h-.573l-1.343,2.233-1.335-2.233h-.6l1.684,2.691v2.035h.457V72.323Zm11.793-2.233a1.517,1.517,0,0,0-.581-.45,1.8,1.8,0,0,0-.689-.122,1.831,1.831,0,0,0-.537.076,1.426,1.426,0,0,0-.464.244,1.277,1.277,0,0,0-.334.427,1.358,1.358,0,0,0-.123.587,1.337,1.337,0,0,0,.1.549,1.063,1.063,0,0,0,.261.358,1.354,1.354,0,0,0,.37.236,4.088,4.088,0,0,0,.377.175l.428.145a2.132,2.132,0,0,1,.37.183.993.993,0,0,1,.254.274.849.849,0,0,1,.015.777,1.01,1.01,0,0,1-.225.274,1.111,1.111,0,0,1-.312.16,1.042,1.042,0,0,1-.341.061,1.152,1.152,0,0,1-.617-.16,1.137,1.137,0,0,1-.406-.412l-.414.313a1.533,1.533,0,0,0,.631.534,1.962,1.962,0,0,0,.784.168,1.39,1.39,0,0,0,.53-.1,1.358,1.358,0,0,0,.479-.267,1.271,1.271,0,0,0,.472-1.006,1.2,1.2,0,0,0-.167-.671,1.351,1.351,0,0,0-.428-.4,2.518,2.518,0,0,0-.559-.244,4.741,4.741,0,0,1-.552-.2,1.5,1.5,0,0,1-.428-.29.7.7,0,0,1-.167-.5.8.8,0,0,1,.08-.381.859.859,0,0,1,.218-.267.924.924,0,0,1,.312-.152,1.283,1.283,0,0,1,.348-.053.973.973,0,0,1,.871.465l.4-.328Zm9.623,1.906a2.723,2.723,0,0,0-.181-.991,2.3,2.3,0,0,0-.493-.762,2.241,2.241,0,0,0-.726-.518,2.448,2.448,0,0,0-1.858,0,2.176,2.176,0,0,0-.726.518,2.441,2.441,0,0,0-.493.762,2.905,2.905,0,0,0,0,1.982,2.441,2.441,0,0,0,.493.762,2.175,2.175,0,0,0,.726.518,2.358,2.358,0,0,0,1.858,0,2.241,2.241,0,0,0,.726-.518,2.3,2.3,0,0,0,.493-.762,2.722,2.722,0,0,0,.181-.991Zm-.5,0a2.3,2.3,0,0,1-.123.762,2.137,2.137,0,0,1-.363.648,1.83,1.83,0,0,1-2.134.45,1.736,1.736,0,0,1-.581-.45,1.866,1.866,0,0,1-.363-.648,2.294,2.294,0,0,1-.131-.762,2.326,2.326,0,0,1,.131-.762,1.867,1.867,0,0,1,.363-.648,1.736,1.736,0,0,1,.581-.45,1.867,1.867,0,0,1,1.546,0,1.763,1.763,0,0,1,.588.45,2.138,2.138,0,0,1,.363.648,2.32,2.32,0,0,1,.123.762Zm6.1-2.363h-.457v4.726h2.555v-.442h-2.1V69.632Zm10.16,0h-.457v2.912a2.223,2.223,0,0,1-.065.579,1.567,1.567,0,0,1-.167.412,1.041,1.041,0,0,1-.239.267,1.123,1.123,0,0,1-.261.145,1.077,1.077,0,0,1-.254.076h-.414a1.183,1.183,0,0,1-.254-.076,1.081,1.081,0,0,1-.254-.145,1.04,1.04,0,0,1-.239-.267,1.565,1.565,0,0,1-.167-.412,2.219,2.219,0,0,1-.065-.579V69.632h-.457V72.6a3.2,3.2,0,0,0,.065.625,1.862,1.862,0,0,0,.254.61,1.6,1.6,0,0,0,.5.465,1.943,1.943,0,0,0,1.647,0,1.549,1.549,0,0,0,.508-.465,1.707,1.707,0,0,0,.247-.61,3.254,3.254,0,0,0,.073-.625Zm6.815.442h1.509v-.442h-3.469v.442h1.5v4.284h.457Zm6.9-.442h-.457v4.726h.457Zm9.834,2.363a2.723,2.723,0,0,0-.174-.991,2.294,2.294,0,0,0-.493-.762,2.241,2.241,0,0,0-.726-.518,2.357,2.357,0,0,0-.929-.183,2.391,2.391,0,0,0-.936.183,2.241,2.241,0,0,0-.726.518,2.44,2.44,0,0,0-.493.762,2.9,2.9,0,0,0,0,1.982,2.44,2.44,0,0,0,.493.762,2.241,2.241,0,0,0,.726.518,2.4,2.4,0,0,0,.936.191,2.358,2.358,0,0,0,.929-.191,2.241,2.241,0,0,0,.726-.518,2.3,2.3,0,0,0,.494-.762,2.723,2.723,0,0,0,.174-.991Zm-.493,0a2.486,2.486,0,0,1-.123.762,2,2,0,0,1-.37.648,1.67,1.67,0,0,1-.581.45,1.866,1.866,0,0,1-1.546,0,1.735,1.735,0,0,1-.581-.45,2,2,0,0,1-.37-.648,2.486,2.486,0,0,1-.123-.762,2.52,2.52,0,0,1,.123-.762,2,2,0,0,1,.37-.648,1.735,1.735,0,0,1,.581-.45,1.866,1.866,0,0,1,1.546,0,1.67,1.67,0,0,1,.581.45,2,2,0,0,1,.37.648A2.517,2.517,0,0,1,275.89,71.995Zm6.219-2.363h-.573v4.726h.457v-4.04h0l2.678,4.04h.573V69.632h-.457v4h0Zm11.133.457a1.458,1.458,0,0,0-.581-.45,1.953,1.953,0,0,0-1.219-.046,1.481,1.481,0,0,0-.472.244,1.173,1.173,0,0,0-.327.427,1.263,1.263,0,0,0-.123.587,1.346,1.346,0,0,0,.094.549,1.064,1.064,0,0,0,.261.358,1.355,1.355,0,0,0,.37.236,3.619,3.619,0,0,0,.428.168l.421.145a2.134,2.134,0,0,1,.37.183.915.915,0,0,1,.261.274.877.877,0,0,1,.007.778.9.9,0,0,1-.225.274,1.069,1.069,0,0,1-.3.16,1.164,1.164,0,0,1-1.372-.511l-.406.313a1.534,1.534,0,0,0,.631.534,1.963,1.963,0,0,0,.784.168,1.646,1.646,0,0,0,1-.366,1.3,1.3,0,0,0,.348-.427,1.278,1.278,0,0,0,.131-.579,1.14,1.14,0,0,0-.174-.671,1.277,1.277,0,0,0-.428-.4,2.454,2.454,0,0,0-.552-.244,4.871,4.871,0,0,1-.559-.2,1.36,1.36,0,0,1-.421-.29.7.7,0,0,1-.174-.5.89.89,0,0,1,.08-.381.751.751,0,0,1,.225-.267.831.831,0,0,1,.3-.152,1.386,1.386,0,0,1,.348-.053.959.959,0,0,1,.871.465Z" transform="translate(-37.137 -14.349)" fill="#fff"/>
    <path id="Path_4" data-name="Path 4" d="M63.283,43.7a55.508,55.508,0,0,0-7.787,7.16l-3.752-3.426c-.152-10.531,2.605-8.684,4.2-12.821-1.6.474-3.026,2.81-4.129,3.947-7.446-5.913-7.032-5.416-6.923-10.263-2.533,1.705.726,2.368-2.518,5.526a44.2,44.2,0,0,1-4.543,3.537c-2.663-1.974-5.341-4.216-6.466-7.026l-.813-1.816c0,3.055.668,2.463-3.193,5.684-1.676,1.326-3.229,2.5-4.7,3.695l-3.07-2.439c.726,4.879,3.259.442,2.177,11.131-.232,2.3-4.354,6.268-6.19,7.516l-5.305-2.455C12.692,41.21,21.728,27.694,33.288,25.768,46.584,23.55,60.67,33.82,63.283,43.7ZM82.544,62.865c3.708-.789,5.494-3.947-1.009-5.092-9.507-1.721-9.347-5.621-4.848-8.826,4.354,1.113,12.635-1.8,13.593-4.453,2.526-16.468-11.8-21.75-18.252-17.565C70.061,17.2,64.386,4.445,57.513,1.176c0,13.673,10.088,26.313,12.1,27.442-2.743,3.513-3.629,8.534-2.765,10.918C45.444,4.879,10.239,22.555,6.429,43.373a20.069,20.069,0,0,0-.239,4.934,4.309,4.309,0,0,0-4.812.742c-1.938,1.887-1.822,5.463.254,7.974s5.334,3.008,7.257,1.121a4.233,4.233,0,0,0,.53-.632,12.144,12.144,0,0,1-5.08-1.05c-1.451-.789,4.456-1.824,5.741-3.434a2.377,2.377,0,0,0,.689.529c11.147,5.574,24.544,8.431,37.738,4.658,4.282-1.224,7.519-6.521,12.787-11.052,1.93-1.65,4.979-4.287,8.593-2.7a17.376,17.376,0,0,1,3.128,2.953c1.248,1.634,1.045,2.479.588,4.547-5.124,1.887-11.017,3.671-14.761,6.805.4.632,1.568,1.579,2.177,2.368a2.1,2.1,0,0,1,.464,1.934l21.046-.182ZM9.434,57.512a4.759,4.759,0,0,0,2.177-.608c1.023,1.484,1.56,2.139,1.524,3.387a16.227,16.227,0,0,1-3.7-2.779ZM22,62.975a2.308,2.308,0,0,0-.443-2.321C33.891,62.407,39.4,62.612,51.4,60.536a2.336,2.336,0,0,1,1.081,2.621H25.4a30.352,30.352,0,0,1-3.367-.182Zm7.439-5.021c-.21-2.81-5.022-6.671-7.047-8.455l-5.7,5.021a42.56,42.56,0,0,0,12.737,3.434Zm25.11-5.929a25.6,25.6,0,0,0-3.36-3.576c-1.219.568-.051-.1-1.292.853-.29.221-.726.663-1.161.995-4.1,3.387-5.189,3.513-5.24,7.421,6.807-1.042,7.693-2.321,11.053-5.692ZM30.6,58.033c3.513,1.082,11.822,1.018,12.047-.4.21-1.287-.914-4.516-5.08-7.168-2.177,1.137-6.6,4.871-6.952,7.579ZM50.7,39.378c-1.952-1.729-4.115-4.137-6.532-5.313-1.93,1.263-3.948,3-5.748,4.35-.123,1.9-.486,8.684-.094,10.113s3.868,4.231,4.979,4.737l3.629-3.245c1.139-.963,2.794-2.542,3.629-3.339l.16-7.279ZM36.656,49.491c.123-2.645.762-9.2-.189-11.258a43.479,43.479,0,0,0-5.341-5.313c-3.157,1.76-5.247,4.863-8.063,6.237l-.2,9.474c2.758,1.926,5.588,5.234,7.3,6.221,2.518-1.532,3.774-3.7,6.5-5.337ZM68.849,45.6a1.229,1.229,0,0,1,1.139,1.3,1.217,1.217,0,0,1-1.2,1.239,1.229,1.229,0,0,1-1.139-1.3A1.217,1.217,0,0,1,68.849,45.6ZM82.638,31.3a1.812,1.812,0,0,1,1.707,1.185,2.1,2.1,0,0,1-.365,2.167A1.711,1.711,0,0,1,82,35.1a1.981,1.981,0,0,1-1.13-1.828A1.881,1.881,0,0,1,82.638,31.3Zm-9.7-7.058a37.762,37.762,0,0,0-1.451-5.716c.5-3.482-2.177-11.842,2.134-18.529C78.487,10.531,73.566,23.3,72.935,24.244Z" transform="translate(0.003)" fill="#fff" fill-rule="evenodd"/>
  </g>
</svg>
